<?xml version="1.0" encoding="UTF-8" standalone="no"?>
<!-- Created with Inkscape (http://www.inkscape.org/) -->

<svg
   width="210mm"
   height="297mm"
   viewBox="0 0 210 297"
   version="1.1"
   id="svg1"
   inkscape:export-filename="logo.svg"
   inkscape:export-xdpi="96"
   inkscape:export-ydpi="96"
   inkscape:version="1.3.2 (091e20e, 2023-11-25, custom)"
   sodipodi:docname="logo.svg"
   xmlns:inkscape="http://www.inkscape.org/namespaces/inkscape"
   xmlns:sodipodi="http://sodipodi.sourceforge.net/DTD/sodipodi-0.dtd"
   xmlns="http://www.w3.org/2000/svg"
   xmlns:svg="http://www.w3.org/2000/svg">
  <sodipodi:namedview
     id="namedview1"
     pagecolor="#ffffff"
     bordercolor="#000000"
     borderopacity="0.25"
     inkscape:showpageshadow="2"
     inkscape:pageopacity="0.0"
     inkscape:pagecheckerboard="0"
     inkscape:deskcolor="#d1d1d1"
     inkscape:document-units="mm"
     showguides="false"
     inkscape:zoom="6.505672"
     inkscape:cx="415.71416"
     inkscape:cy="148.40896"
     inkscape:window-width="1920"
     inkscape:window-height="1009"
     inkscape:window-x="-8"
     inkscape:window-y="-8"
     inkscape:window-maximized="1"
     inkscape:current-layer="layer1"
     inkscape:export-bgcolor="#ffffff00" />
  <defs
     id="defs1" />
  <g
     inkscape:label="Camada 1"
     inkscape:groupmode="layer"
     id="layer1">
    <g
       id="g2"
       transform="translate(-1.3798828e-5,82.31535)">
      <rect
         style="fill:#000000;fill-opacity:1;stroke:none;stroke-width:0.253423;stroke-linecap:round;stroke-linejoin:round;stroke-miterlimit:99946.9;stroke-dasharray:none;stroke-opacity:1;paint-order:fill markers stroke"
         id="rect2-0"
         width="91.701897"
         height="11.618142"
         x="-102.04739"
         y="-114.86343"
         transform="scale(-1)"
         inkscape:export-filename="..\..\..\..\Desktop\logo.png"
         inkscape:export-xdpi="96"
         inkscape:export-ydpi="96" />
      <rect
         style="fill:#000000;fill-opacity:1;stroke:none;stroke-width:0.253423;stroke-linecap:round;stroke-linejoin:round;stroke-miterlimit:99946.9;stroke-dasharray:none;stroke-opacity:1;paint-order:fill markers stroke"
         id="rect2-0-7"
         width="91.701897"
         height="11.618142"
         x="-102.04739"
         y="-98.219017"
         transform="scale(-1)" />
      <rect
         style="fill:#000000;fill-opacity:1;stroke:none;stroke-width:0.253423;stroke-linecap:round;stroke-linejoin:round;stroke-miterlimit:99946.9;stroke-dasharray:none;stroke-opacity:1;paint-order:fill markers stroke"
         id="rect2-0-7-9"
         width="91.701897"
         height="11.618142"
         x="-102.04739"
         y="-81.574608"
         transform="scale(-1)" />
      <path
         id="rect1"
         style="fill:#000000;fill-opacity:1;stroke:none;stroke-width:0.529;stroke-linecap:round;stroke-miterlimit:99946.9;paint-order:fill markers stroke"
         d="m 10.345483,119.8897 v 39.65132 h 7.440373 v -30.19764 h 5.246191 l 0.204122,2.16369 c 0.29938,-0.36741 0.625972,-0.69401 0.979786,-0.97978 0.353812,-0.29938 0.734837,-0.55793 1.143082,-0.77566 0.489898,-0.25856 1.027668,-0.45613 1.612822,-0.59221 0.598761,-0.14969 1.238334,-0.2248 1.918746,-0.2248 1.401644,0 2.639968,0.27268 3.715018,0.81701 1.075049,0.53072 1.979721,1.2857 2.714563,2.26549 0.734846,0.9934 1.286226,2.18436 1.653646,3.57239 0.381029,1.37443 0.571539,2.89852 0.571539,4.57233 v 0.4284 c 0,1.60577 -0.19051,3.0961 -0.571539,4.47053 -0.36742,1.37442 -0.911743,2.55832 -1.632976,3.55172 -0.734843,1.00701 -1.64003,1.79626 -2.71508,2.36781 -1.07505,0.57155 -2.306309,0.85731 -3.694349,0.85731 -0.734843,0 -1.415242,-0.0816 -2.041219,-0.24494 -0.612369,-0.14969 -1.183904,-0.37447 -1.714624,-0.67386 -0.312991,-0.19051 -0.612882,-0.40118 -0.898652,-0.63252 -0.285775,-0.23134 -0.55793,-0.4899 -0.816489,-0.77567 v 10.0304 H 102.04738 V 119.8897 Z m 46.877759,0 h 12.34964 v 26.92652 h 6.32778 v 4.61315 h -18.05317 -0.62425 -18.84071 v -4.61315 h 6.286954 v -12.83953 h -6.286954 v -4.63331 h 12.02304 v 17.47284 h 6.81767 0.62425 5.9893 v -22.10666 h -6.61355 z m -9.696049,0.77824 c 1.007009,0 1.803339,0.28578 2.388489,0.85732 0.59877,0.55794 0.89814,1.27915 0.89814,2.16369 0,0.88453 -0.29937,1.6123 -0.89814,2.18384 -0.58515,0.55794 -1.38148,0.83716 -2.388489,0.83716 -0.489899,0 -0.938955,-0.0751 -1.347204,-0.22479 -0.39464,-0.14969 -0.734841,-0.36036 -1.020611,-0.63252 -0.285769,-0.25856 -0.51056,-0.57154 -0.673861,-0.93896 -0.149771,-0.38103 -0.224276,-0.78927 -0.224276,-1.22473 0,-0.43547 0.0746,-0.83716 0.224276,-1.20458 0.163301,-0.38103 0.388092,-0.70762 0.673861,-0.97979 0.28577,-0.25855 0.625969,-0.46267 1.020611,-0.61236 0.408249,-0.14969 0.857305,-0.22428 1.347204,-0.22428 z m 37.763589,8.2672 c 1.59217,0 3.00739,0.26509 4.24574,0.79582 1.25195,0.5171 2.31338,1.25193 3.1843,2.20451 0.85732,0.95258 1.5105,2.1027 1.95957,3.44992 0.44906,1.33361 0.67386,2.80982 0.67386,4.42919 v 2.40864 h -14.98307 v 0.0615 c 0.19051,0.88453 0.43545,1.59869 0.73484,2.14302 0.29938,0.53072 0.70107,1.01406 1.20458,1.44952 0.51711,0.44907 1.10931,0.79582 1.77612,1.04077 0.6668,0.24495 1.39457,0.36742 2.18385,0.36742 1.11587,0 2.19796,-0.21066 3.24579,-0.63252 1.04782,-0.42185 1.89808,-1.05489 2.55127,-1.89859 l 2.83755,3.06182 c -0.72124,1.02062 -1.86432,1.94596 -3.42925,2.77606 -1.56495,0.83011 -3.41562,1.2454 -5.55211,1.2454 -1.70102,0 -3.24579,-0.2787 -4.63383,-0.83664 -1.38803,-0.55793 -2.57899,-1.32049 -3.57239,-2.28668 -0.99341,-0.95257 -1.76199,-2.07498 -2.30632,-3.36775 -0.53072,-1.30639 -0.79633,-2.70146 -0.79633,-4.18476 v -0.81649 c 0,-1.68742 0.26561,-3.22514 0.79633,-4.61316 0.53073,-1.40164 1.27209,-2.60568 2.22467,-3.61269 0.95257,-1.00701 2.08203,-1.78973 3.38842,-2.34766 1.30639,-0.55794 2.7287,-0.83665 4.26641,-0.83665 z m -0.0403,4.59248 c -0.63959,0 -1.22473,0.11593 -1.75545,0.34727 -0.53071,0.21773 -0.99338,0.53725 -1.38802,0.95911 -0.40825,0.42185 -0.74844,0.92536 -1.02061,1.51051 -0.27217,0.58515 -0.47629,1.23833 -0.61237,1.95957 h 9.30796 v -0.44907 c 0,-0.59877 -0.10887,-1.16324 -0.3266,-1.69396 -0.21773,-0.53073 -0.5171,-0.99338 -0.89813,-1.38802 -0.38103,-0.38103 -0.85027,-0.68041 -1.40818,-0.89814 -0.54433,-0.23134 -1.17736,-0.34727 -1.8986,-0.34727 z m -57.869854,0.0207 c -0.462678,0 -0.884528,0.0473 -1.265557,0.14263 -0.381029,0.0816 -0.728291,0.20412 -1.04128,0.36742 -0.353813,0.19051 -0.666797,0.42892 -0.938959,0.71469 -0.258556,0.28577 -0.483345,0.61891 -0.673862,0.99994 v 9.2263 c 0.176907,0.35381 0.388089,0.67386 0.633038,0.95963 0.258555,0.28576 0.551383,0.53071 0.877983,0.73484 0.312988,0.19051 0.673338,0.3402 1.081587,0.44907 0.408243,0.0953 0.864368,0.14263 1.367874,0.14263 0.802886,0 1.483283,-0.1769 2.041219,-0.53072 0.571544,-0.35381 1.034215,-0.83664 1.388029,-1.44901 0.353814,-0.61236 0.612364,-1.31997 0.775663,-2.12286 0.163297,-0.81649 0.244946,-1.68086 0.244946,-2.59261 v -0.4284 c 0,-0.92537 -0.08871,-1.78971 -0.265617,-2.5926 -0.163297,-0.81649 -0.421848,-1.52412 -0.775663,-2.12287 -0.36742,-0.58515 -0.836638,-1.04782 -1.408183,-1.38803 -0.557935,-0.34021 -1.238332,-0.51005 -2.041218,-0.51005 z"
         sodipodi:nodetypes="cccccccccscccssccssccsccccccccccccccccccccccccccscscscccscccsscccscccccsssccsssccsscsssssccsccssccssccccccccscscsscccs" />
    </g>
    <g
       id="g1"
       transform="translate(85.894278,-31.779707)">
      <rect
         style="fill:#ffffff;fill-opacity:1;stroke:#000000;stroke-width:1.864;stroke-linecap:square;stroke-linejoin:miter;stroke-miterlimit:99946.9;stroke-dasharray:none;stroke-opacity:1;paint-order:normal"
         id="rect2-0-2"
         width="91.701897"
         height="11.618142"
         x="-154.10452"
         y="-226.11867"
         transform="scale(-1)"
         inkscape:export-filename="logo_b.png"
         inkscape:export-xdpi="96"
         inkscape:export-ydpi="96" />
      <rect
         style="fill:#ffffff;fill-opacity:1;stroke:#000000;stroke-width:1.864;stroke-linecap:square;stroke-linejoin:miter;stroke-miterlimit:99946.9;stroke-dasharray:none;stroke-opacity:1;paint-order:normal"
         id="rect2-0-7-3"
         width="91.701897"
         height="11.618142"
         x="-154.10452"
         y="-209.47426"
         transform="scale(-1)" />
      <rect
         style="fill:#ffffff;fill-opacity:1;stroke:#000000;stroke-width:1.864;stroke-linecap:square;stroke-linejoin:miter;stroke-miterlimit:99946.9;stroke-dasharray:none;stroke-opacity:1;paint-order:normal"
         id="rect2-0-7-9-8"
         width="91.701897"
         height="11.618142"
         x="-154.10452"
         y="-192.82985"
         transform="scale(-1)" />
      <path
         id="rect1-1"
         style="fill:#ffffff;fill-opacity:1;stroke:#000000;stroke-width:1.864;stroke-linecap:square;stroke-linejoin:miter;stroke-miterlimit:99946.9;stroke-dasharray:none;stroke-opacity:1;paint-order:normal"
         d="m 62.402614,231.14492 v 39.65132 h 7.44037 V 240.5986 h 5.24619 l 0.20413,2.16369 c -0.06665,0.08 0.62597,-0.69401 0.97978,-0.97978 0.35381,-0.29938 0.73484,-0.55793 1.14308,-0.77566 0.4899,-0.25856 1.02767,-0.45613 1.61283,-0.59221 0.59876,-0.14969 1.23833,-0.2248 1.91874,-0.2248 1.40165,0 2.63997,0.27268 3.71502,0.81701 1.07505,0.53072 1.97972,1.2857 2.71456,2.26549 0.73485,0.9934 1.28623,2.18436 1.65365,3.57239 0.38103,1.37443 0.57154,2.89852 0.57154,4.57233 v 0.4284 c 0,1.60577 -0.19051,3.0961 -0.57154,4.47053 -0.36742,1.37442 -0.91174,2.55832 -1.63298,3.55172 -0.73484,1.00701 -1.64003,1.79626 -2.71508,2.36781 -1.07505,0.57155 -2.30631,0.85731 -3.69435,0.85731 -0.73484,0 -1.41524,-0.0816 -2.04122,-0.24494 -0.61236,-0.14969 -1.1839,-0.37447 -1.71462,-0.67386 -0.31299,-0.19051 -0.61288,-0.40118 -0.89865,-0.63252 -0.28578,-0.23134 -0.842617,-0.81526 -0.81649,-0.77567 v 10.0304 h 78.586936 v -39.65132 z m 46.877756,0 h 12.34964 v 26.92652 h 6.32778 v 4.61315 h -18.05317 -0.62425 -18.840706 v -4.61315 h 6.28695 v -12.83953 h -6.28695 V 240.5986 H 102.4627 v 17.47284 h 6.81767 0.62425 5.9893 v -22.10666 h -6.61355 z m -9.696046,0.77824 c 1.007006,0 1.803336,0.28578 2.388486,0.85732 0.59877,0.55794 0.89814,1.27915 0.89814,2.16369 0,0.88453 -0.29937,1.6123 -0.89814,2.18384 -0.58515,0.55794 -1.38148,0.83716 -2.388486,0.83716 -0.4899,0 -0.93896,-0.0751 -1.3472,-0.22479 -0.39464,-0.14969 -0.73485,-0.36036 -1.02062,-0.63252 -0.28576,-0.25856 -0.51056,-0.57154 -0.67386,-0.93896 -0.14977,-0.38103 -0.22427,-0.78927 -0.22427,-1.22473 0,-0.43547 0.0746,-0.83716 0.22427,-1.20458 0.1633,-0.38103 0.3881,-0.70762 0.67386,-0.97979 0.28577,-0.25855 0.62597,-0.46267 1.02062,-0.61236 0.40824,-0.14969 0.8573,-0.22428 1.3472,-0.22428 z m 37.763586,8.2672 c 1.59217,0 3.00739,0.26509 4.24574,0.79582 1.25195,0.5171 2.31338,1.25193 3.1843,2.20451 0.85732,0.95258 1.5105,2.1027 1.95957,3.44992 0.44906,1.33361 0.67386,2.80982 0.67386,4.42919 v 2.40864 h -14.98307 v 0.0615 c 0.19051,0.88453 0.43545,1.59869 0.73484,2.14302 0.29938,0.53072 0.70107,1.01406 1.20458,1.44952 0.51711,0.44907 1.10931,0.79582 1.77612,1.04077 0.6668,0.24495 1.39457,0.36742 2.18385,0.36742 1.11587,0 2.19796,-0.21066 3.24579,-0.63252 1.04782,-0.42185 1.89808,-1.05489 2.55127,-1.89859 l 2.83755,3.06182 c -0.72124,1.02062 -1.86432,1.94596 -3.42925,2.77606 -1.56495,0.83011 -3.41562,1.2454 -5.55211,1.2454 -1.70102,0 -3.24579,-0.2787 -4.63383,-0.83664 -1.38803,-0.55793 -2.57899,-1.32049 -3.57239,-2.28668 -0.99341,-0.95257 -1.76199,-2.07498 -2.30632,-3.36775 -0.53072,-1.30639 -0.79633,-2.70146 -0.79633,-4.18476 v -0.81649 c 0,-1.68742 0.26561,-3.22514 0.79633,-4.61316 0.53073,-1.40164 1.27209,-2.60568 2.22467,-3.61269 0.95257,-1.00701 2.08203,-1.78973 3.38842,-2.34766 1.30639,-0.55794 2.7287,-0.83665 4.26641,-0.83665 z m -0.0403,4.59248 c -0.63959,0 -1.22473,0.11593 -1.75545,0.34727 -0.53071,0.21773 -0.99338,0.53725 -1.38802,0.95911 -0.40825,0.42185 -0.74844,0.92536 -1.02061,1.51051 -0.27217,0.58515 -0.47629,1.23833 -0.61237,1.95957 h 9.30796 v -0.44907 c 0,-0.59877 -0.10887,-1.16324 -0.3266,-1.69396 -0.21773,-0.53073 -0.5171,-0.99338 -0.89813,-1.38802 -0.38103,-0.38103 -0.85027,-0.68041 -1.40818,-0.89814 -0.54433,-0.23134 -1.17736,-0.34727 -1.8986,-0.34727 z m -57.869856,0.0207 c -0.46267,0 -0.88452,0.0473 -1.26555,0.14263 -0.38103,0.0816 -0.72829,0.20412 -1.04128,0.36742 -0.35382,0.19051 -0.6668,0.42892 -0.93896,0.71469 -0.25856,0.28577 -0.48335,0.61891 -0.67386,0.99994 v 9.2263 c 0.1769,0.35381 0.38809,0.67386 0.63303,0.95963 0.25856,0.28576 0.55139,0.53071 0.87799,0.73484 0.31299,0.19051 0.67334,0.3402 1.08158,0.44907 0.40825,0.0953 0.86437,0.14263 1.36788,0.14263 0.80288,0 1.48328,-0.1769 2.04122,-0.53072 0.57154,-0.35381 1.03421,-0.83664 1.38803,-1.44901 0.35381,-0.61236 0.61236,-1.31997 0.77566,-2.12286 0.1633,-0.81649 0.24495,-1.68086 0.24495,-2.59261 v -0.4284 c 0,-0.92537 -0.0887,-1.78971 -0.26562,-2.5926 -0.1633,-0.81649 -0.42185,-1.52412 -0.77566,-2.12287 -0.36742,-0.58515 -0.83664,-1.04782 -1.40819,-1.38803 -0.55793,-0.34021 -1.23833,-0.51005 -2.04122,-0.51005 z"
         sodipodi:nodetypes="cccccccccscccssccssccsccccccccccccccccccccccccccscscscccscccsscccscccccsssccsssccsscssscsccsccsscccsccccccccscscssccc" />
    </g>
    <path
       id="rect1-8"
       style="fill:#000000;stroke:none;stroke-width:0.529;stroke-linecap:round;stroke-miterlimit:99946.9;stroke-opacity:1;paint-order:fill markers stroke"
       d="m 10.345486,80.676349 v 39.651331 h 7.44037 V 90.130029 h 5.24619 l 0.20412,2.16369 c 0.29939,-0.36741 0.62598,-0.69401 0.97979,-0.97978 0.353809,-0.29938 0.73484,-0.55793 1.14308,-0.77566 0.4899,-0.25856 1.02767,-0.45613 1.61282,-0.59221 0.59877,-0.14969 1.238338,-0.2248 1.91875,-0.2248 1.40164,0 2.63997,0.27268 3.715019,0.81701 1.075051,0.53072 1.97972,1.2857 2.714561,2.26549 0.734849,0.9934 1.28623,2.18436 1.65365,3.57239 0.381029,1.37443 0.57154,2.898517 0.57154,4.572331 v 0.4284 c 0,1.60577 -0.190511,3.09611 -0.57154,4.47054 -0.36742,1.37442 -0.91174,2.55832 -1.63298,3.55172 -0.734842,1.00701 -1.64003,1.79626 -2.71508,2.36781 -1.075052,0.57155 -2.30631,0.85731 -3.69435,0.85731 -0.734842,0 -1.41524,-0.0816 -2.04122,-0.24494 -0.61236,-0.14969 -1.1839,-0.37447 -1.71462,-0.67386 -0.31299,-0.19051 -0.61288,-0.40118 -0.89865,-0.63252 -0.28578,-0.23134 -0.55793,-0.4899 -0.81649,-0.77567 v 10.0304 H 102.04738 V 80.676349 Z m 46.877756,0 h 12.34964 v 26.926531 h 6.32778 v 4.61315 h -18.05317 -0.62425 -18.840706 v -4.61315 h 6.28695 V 94.763339 h -6.28695 v -4.63331 h 12.023026 v 17.472851 h 6.81768 0.62425 5.9893 V 85.496209 h -6.61355 z m -9.696046,0.77824 c 1.007006,0 1.803326,0.28578 2.388476,0.85732 0.59877,0.55794 0.89814,1.27915 0.89814,2.16369 0,0.88453 -0.29937,1.6123 -0.89814,2.18384 -0.58515,0.55794 -1.38147,0.83716 -2.388476,0.83716 -0.4899,0 -0.93896,-0.0751 -1.34721,-0.22479 -0.39464,-0.14969 -0.73484,-0.36036 -1.02061,-0.63252 -0.28577,-0.25856 -0.51056,-0.57154 -0.67386,-0.93896 -0.149771,-0.38103 -0.224271,-0.78927 -0.224271,-1.22473 0,-0.43547 0.0746,-0.83716 0.224271,-1.20458 0.1633,-0.38103 0.38809,-0.70762 0.67386,-0.97979 0.28577,-0.25855 0.62597,-0.46267 1.02061,-0.61236 0.40825,-0.14969 0.85731,-0.22428 1.34721,-0.22428 z m 37.763586,8.2672 c 1.59217,0 3.00739,0.26509 4.24574,0.79582 1.25195,0.5171 2.31338,1.25193 3.1843,2.20451 0.85732,0.95258 1.5105,2.1027 1.95957,3.44992 0.44906,1.33361 0.67386,2.809817 0.67386,4.429191 v 2.40864 h -14.98307 v 0.0615 c 0.19051,0.88454 0.43545,1.5987 0.73484,2.14303 0.29938,0.53072 0.70107,1.01406 1.20458,1.44952 0.51711,0.44907 1.10931,0.79582 1.77612,1.04077 0.6668,0.24495 1.39457,0.36742 2.18385,0.36742 1.11587,0 2.19796,-0.21066 3.24579,-0.63252 1.04782,-0.42185 1.89808,-1.05489 2.55127,-1.89859 l 2.83755,3.06182 c -0.72124,1.02062 -1.86432,1.94596 -3.42925,2.77606 -1.56495,0.83011 -3.41562,1.2454 -5.55211,1.2454 -1.70102,0 -3.24579,-0.2787 -4.63383,-0.83664 -1.38803,-0.55793 -2.57899,-1.32049 -3.57239,-2.28668 -0.99341,-0.95257 -1.76199,-2.07498 -2.30632,-3.36775 -0.53072,-1.30639 -0.79633,-2.70147 -0.79633,-4.18477 v -0.81649 c 0,-1.687424 0.26561,-3.225141 0.79633,-4.613161 0.53073,-1.40164 1.27209,-2.60568 2.22467,-3.61269 0.95257,-1.00701 2.08203,-1.78973 3.38842,-2.34766 1.30639,-0.55794 2.7287,-0.83665 4.26641,-0.83665 z m -0.0403,4.59248 c -0.63959,0 -1.22473,0.11593 -1.75545,0.34727 -0.53071,0.21773 -0.99338,0.53725 -1.38802,0.95911 -0.40825,0.42185 -0.74844,0.92536 -1.02061,1.51051 -0.27217,0.58515 -0.47629,1.238327 -0.61237,1.959567 h 9.30796 v -0.44907 c 0,-0.598767 -0.10887,-1.163237 -0.3266,-1.693957 -0.21773,-0.53073 -0.5171,-0.99338 -0.89813,-1.38802 -0.38103,-0.38103 -0.85027,-0.68041 -1.40818,-0.89814 -0.54433,-0.23134 -1.17736,-0.34727 -1.8986,-0.34727 z m -57.869856,0.0207 c -0.462681,0 -0.88452,0.0473 -1.26555,0.14263 -0.38103,0.0816 -0.728291,0.20412 -1.04128,0.36742 -0.35382,0.19051 -0.6668,0.42892 -0.93896,0.71469 -0.25856,0.28577 -0.48335,0.61891 -0.67386,0.99994 v 9.226311 c 0.1769,0.35381 0.38809,0.67386 0.63303,0.95963 0.25856,0.28576 0.55139,0.53071 0.87799,0.73484 0.312979,0.19051 0.673339,0.3402 1.08158,0.44907 0.40825,0.0953 0.864369,0.14263 1.36788,0.14263 0.80288,0 1.483279,-0.1769 2.04122,-0.53072 0.571539,-0.35381 1.03421,-0.83664 1.38803,-1.44901 0.353808,-0.61236 0.612358,-1.31997 0.77566,-2.12286 0.1633,-0.8165 0.24495,-1.68087 0.24495,-2.59262 v -0.4284 c 0,-0.92537 -0.0887,-1.789714 -0.26562,-2.592604 -0.1633,-0.816487 -0.42185,-1.524117 -0.77566,-2.122867 -0.36742,-0.58515 -0.83664,-1.04782 -1.40819,-1.38803 -0.55793,-0.34021 -1.238332,-0.51005 -2.04122,-0.51005 z"
       sodipodi:nodetypes="cccccccccscccssccssccsccccccccccccccccccccccccccscscscccscccsscccscccccsssccsssccsscsssssccsccssccssccccccccscscsscccs"
       inkscape:export-filename="logo_text_b.svg"
       inkscape:export-xdpi="96"
       inkscape:export-ydpi="96" />
    <path
       d="m 97.096946,52.291737 h 2.14079 v -3.927348 q 0.146313,0.161714 0.308027,0.292626 0.161715,0.130911 0.33883,0.238721 0.300327,0.169415 0.646857,0.254122 0.35423,0.09241 0.77007,0.09241 0.78547,0 1.39382,-0.323429 0.60836,-0.323429 1.02419,-0.893279 0.40814,-0.56215 0.61606,-1.339919 0.21562,-0.777769 0.21562,-1.68645 v -0.161714 q 0,-0.947184 -0.21562,-1.724953 -0.20792,-0.78547 -0.62376,-1.34762 -0.41583,-0.554449 -1.02419,-0.854776 -0.60835,-0.308027 -1.40152,-0.308027 -0.38504,0 -0.72387,0.08471 -0.33113,0.07701 -0.608351,0.22332 -0.23102,0.123211 -0.431238,0.292626 -0.200218,0.161714 -0.369633,0.369633 l -0.07701,-0.816273 h -1.979075 z m 5.313474,-7.454261 v 0.161714 q 0,0.515946 -0.0924,0.977987 -0.0924,0.45434 -0.29263,0.800871 -0.20021,0.346531 -0.52364,0.546748 -0.31573,0.200218 -0.77007,0.200218 -0.28493,0 -0.51595,-0.05391 -0.231018,-0.06161 -0.408134,-0.169415 -0.184816,-0.11551 -0.331129,-0.277224 -0.138612,-0.161715 -0.238721,-0.361932 v -3.480709 q 0.107809,-0.215619 0.254122,-0.377334 0.154014,-0.161714 0.354232,-0.269524 0.17712,-0.09241 0.39273,-0.138612 0.21562,-0.05391 0.47745,-0.05391 0.45434,0 0.77007,0.192517 0.32342,0.192517 0.53134,0.523647 0.20022,0.33883 0.29263,0.800871 0.10011,0.45434 0.10011,0.977987 z m 2.45663,-4.081363 v 1.748056 h 2.37181 v 4.84373 h -2.37181 v 1.740354 h 6.79201 v -1.740354 h -2.2563 v -6.591786 z m 2.2178,-2.133089 q 0,0.246422 0.0847,0.462041 0.0924,0.207919 0.25412,0.354232 0.16171,0.154013 0.38503,0.238721 0.23103,0.08471 0.50825,0.08471 0.56985,0 0.90098,-0.315728 0.33883,-0.323428 0.33883,-0.823973 0,-0.500544 -0.33883,-0.816272 -0.33113,-0.323429 -0.90098,-0.323429 -0.27722,0 -0.50825,0.08471 -0.22332,0.08471 -0.38503,0.231021 -0.16171,0.154014 -0.25412,0.369633 -0.0847,0.207918 -0.0847,0.45434 z m 4.89005,-1.363021 v 1.748055 h 2.49502 v 8.339841 h -2.49502 v 1.740354 h 7.04613 v -1.740354 h -2.38721 V 37.260003 Z m 10.82728,11.982264 q 1.20901,0 2.09459,-0.469742 0.88558,-0.469742 1.29371,-1.047293 l -1.07039,-1.155102 q -0.36964,0.477442 -0.96259,0.716163 -0.59295,0.238721 -1.22441,0.238721 -0.44664,0 -0.82397,-0.138612 -0.37733,-0.138612 -0.66996,-0.392735 -0.28492,-0.246422 -0.45434,-0.546748 -0.16941,-0.308028 -0.27722,-0.808572 v -0.0231 h 5.6523 v -0.908681 q 0,-0.916381 -0.25412,-1.671048 -0.25413,-0.762368 -0.73927,-1.301416 -0.49284,-0.539048 -1.20131,-0.831674 -0.70076,-0.300326 -1.60174,-0.300326 -0.87018,0 -1.60944,0.315728 -0.73927,0.315728 -1.27832,0.885578 -0.53904,0.569851 -0.83937,1.363021 -0.30033,0.78547 -0.30033,1.740355 v 0.308027 q 0,0.839375 0.30033,1.57864 0.30803,0.731565 0.87018,1.270613 0.56215,0.546749 1.34762,0.862477 0.78547,0.315728 1.74805,0.315728 z m -0.25412,-6.907513 q 0.40814,0 0.71616,0.130911 0.31573,0.123211 0.53135,0.33883 0.21562,0.22332 0.33883,0.523647 0.12321,0.300326 0.12321,0.639156 v 0.169415 h -3.51151 q 0.077,-0.408136 0.23102,-0.739265 0.15401,-0.33113 0.38503,-0.569851 0.22332,-0.238721 0.52365,-0.361932 0.30033,-0.130911 0.66226,-0.130911 z"
       id="text2"
       style="font-size:15.771px;font-family:'Roboto Mono';-inkscape-font-specification:'Roboto Mono, Normal';letter-spacing:-2.23308px;word-spacing:0px;stroke-width:1.864;stroke-linecap:square;stroke-miterlimit:99946.9"
       aria-label="pile" />
  </g>
</svg>
