<?xml version="1.0" encoding="UTF-8" standalone="no"?>
<!-- Created with Inkscape (http://www.inkscape.org/) -->

<svg
   width="210mm"
   height="297mm"
   viewBox="0 0 210 297"
   version="1.1"
   id="svg1"
   inkscape:export-filename="logo.svg"
   inkscape:export-xdpi="96"
   inkscape:export-ydpi="96"
   inkscape:version="1.3.2 (091e20e, 2023-11-25, custom)"
   sodipodi:docname="logo.svg"
   xmlns:inkscape="http://www.inkscape.org/namespaces/inkscape"
   xmlns:sodipodi="http://sodipodi.sourceforge.net/DTD/sodipodi-0.dtd"
   xmlns="http://www.w3.org/2000/svg"
   xmlns:svg="http://www.w3.org/2000/svg">
  <sodipodi:namedview
     id="namedview1"
     pagecolor="#ffffff"
     bordercolor="#000000"
     borderopacity="0.25"
     inkscape:showpageshadow="2"
     inkscape:pageopacity="0.0"
     inkscape:pagecheckerboard="0"
     inkscape:deskcolor="#d1d1d1"
     inkscape:document-units="mm"
     showguides="false"
     inkscape:zoom="1.1500512"
     inkscape:cx="424.7637"
     inkscape:cy="814.31157"
     inkscape:window-width="1920"
     inkscape:window-height="1009"
     inkscape:window-x="-8"
     inkscape:window-y="-8"
     inkscape:window-maximized="1"
     inkscape:current-layer="layer1"
     inkscape:export-bgcolor="#ffffff00" />
  <defs
     id="defs1">
    <inkscape:path-effect
       effect="fillet_chamfer"
       id="path-effect4"
       is_visible="true"
       lpeversion="1"
       nodesatellites_param="F,0,0,1,0,0,0,1 @ F,0,0,1,0,0,0,1 @ F,0,0,1,0,0,0,1 @ F,0,0,1,0,3.5729435,0,1 @ F,0,0,1,0,0.79373724,0,1 @ F,0,0,1,0,1.3168384,0,1 @ F,0,0,1,0,0,0,1 @ F,0,0,1,0,0,0,1 @ F,0,0,1,0,0,0,1 @ F,0,0,1,0,0,0,1 @ F,0,0,1,0,0,0,1 @ F,0,0,1,0,0,0,1 @ F,0,0,1,0,0,0,1 @ F,0,0,1,0,0,0,1 @ F,0,0,1,0,0,0,1 @ F,0,0,1,0,0,0,1 @ F,0,0,1,0,0,0,1 @ F,0,0,1,0,0,0,1 @ F,0,0,1,0,0,0,1 @ F,0,0,1,0,0,0,1 @ F,0,0,1,0,0,0,1 @ F,0,0,1,0,0,0,1 @ F,0,0,1,0,0,0,1 @ F,0,0,1,0,0,0,1 @ F,0,0,1,0,0,0,1 @ F,0,0,1,0,0,0,1 | F,0,0,1,0,0,0,1 @ F,0,0,1,0,0,0,1 @ F,0,0,1,0,0,0,1 @ F,0,0,1,0,0,0,1 @ F,0,0,1,0,0,0,1 @ F,0,0,1,0,0,0,1 @ F,0,0,1,0,0,0,1 @ F,0,0,1,0,0,0,1 @ F,0,0,1,0,0,0,1 @ F,0,0,1,0,0,0,1 @ F,0,0,1,0,0,0,1 @ F,0,0,1,0,0,0,1 @ F,0,0,1,0,2.5037325,0,1 @ F,0,0,1,0,0,0,1 @ F,0,0,1,0,0,0,1 @ F,0,0,1,0,0,0,1 @ F,0,0,1,0,0,0,1 @ F,0,0,1,0,0,0,1 @ F,0,0,1,0,0,0,1 @ F,0,0,1,0,2.3527894,0,1 | F,0,0,1,0,0,0,1 @ F,0,0,1,0,0,0,1 @ F,0,0,1,0,0,0,1 @ F,0,0,1,0,0,0,1 @ F,0,0,1,0,0,0,1 @ F,0,0,1,0,0,0,1 @ F,0,0,1,0,0,0,1 @ F,0,0,1,0,0,0,1 @ F,0,0,1,0,0,0,1 @ F,0,0,1,0,0,0,1 @ F,0,0,1,0,0,0,1 @ F,0,0,1,0,0,0,1 | F,0,0,1,0,0,0,1 @ F,0,0,1,0,0,0,1 @ F,0,0,1,0,0,0,1 @ F,0,0,1,0,0,0,1 @ F,0,0,1,0,0,0,1 @ F,0,0,1,0,0,0,1 @ F,0,0,1,0,0,0,1 @ F,0,0,1,0,0,0,1 @ F,0,0,1,0,0,0,1 @ F,0,0,1,0,0,0,1 @ F,0,0,1,0,0,0,1 @ F,0,0,1,0,0,0,1 @ F,0,0,1,0,0,0,1 @ F,0,0,1,0,0,0,1 @ F,0,0,1,0,0,0,1 @ F,0,0,1,0,0,0,1 @ F,0,0,1,0,0,0,1 @ F,0,0,1,0,0,0,1 @ F,0,0,1,0,0,0,1 @ F,0,0,1,0,0,0,1 @ F,0,0,1,0,0,0,1 @ F,0,0,1,0,0,0,1 @ F,0,0,1,0,0,0,1 @ F,0,0,1,0,0,0,1 @ F,0,0,1,0,0,0,1 | F,0,0,1,0,0,0,1 @ F,0,0,1,0,0,0,1 @ F,0,0,1,0,0,0,1 @ F,0,0,1,0,0,0,1 @ F,0,0,1,0,0,0,1 @ F,0,0,1,0,0,0,1 @ F,0,0,1,0,0,0,1 @ F,0,0,1,0,0,0,1 @ F,0,0,1,0,0,0,1 @ F,0,0,1,0,0,0,1 | F,0,0,1,0,0,0,1 @ F,0,0,1,0,0,0,1 @ F,0,0,1,0,0,0,1 @ F,0,0,1,0,0,0,1 @ F,0,0,1,0,3.5729435,0,1 @ F,0,0,1,0,0.81166712,0,1 @ F,0,0,1,0,0,0,1 @ F,0,0,1,0,0,0,1 @ F,0,0,1,0,0,0,1 @ F,0,0,1,0,0,0,1 @ F,0,0,1,0,0,0,1 @ F,0,0,1,0,0,0,1 @ F,0,0,1,0,0,0,1 @ F,0,0,1,0,0,0,1 @ F,0,0,1,0,0,0,1 @ F,0,0,1,0,0,0,1 @ F,0,0,1,0,0,0,1 @ F,0,0,1,0,0,0,1"
       radius="0"
       unit="px"
       method="auto"
       mode="F"
       chamfer_steps="1"
       flexible="false"
       use_knot_distance="true"
       apply_no_radius="true"
       apply_with_radius="true"
       only_selected="false"
       hide_knots="false" />
    <inkscape:path-effect
       effect="fillet_chamfer"
       id="path-effect3"
       is_visible="true"
       lpeversion="1"
       nodesatellites_param="F,0,0,1,0,7.5310964,0,1 @ F,0,0,1,0,7.5310964,0,1 @ F,0,0,1,0,6.3556662,0,1 @ F,0,0,1,0,2.480148,0,1 @ F,0,0,1,0,2.480148,0,1 @ F,0,0,1,0,0,0,1 @ F,0,0,1,0,0,0,1 @ F,0,0,1,0,0,0,1 @ F,0,0,1,0,0,0,1 @ F,0,0,1,0,0,0,1 @ F,0,0,1,0,0,0,1 @ F,0,0,1,0,0,0,1 @ F,0,0,1,0,0,0,1 @ F,0,0,1,0,0,0,1 @ F,0,0,1,0,0,0,1 @ F,0,0,1,0,0,0,1 @ F,0,0,1,0,0,0,1 @ F,0,0,1,0,0,0,1 @ F,0,0,1,0,0,0,1 @ F,0,0,1,0,0,0,1 @ F,0,0,1,0,0,0,1 @ F,0,0,1,0,0,0,1 @ F,0,0,1,0,0,0,1 @ F,0,0,1,0,3.0273868,0,1 @ F,0,0,1,0,7.5310964,0,1 @ F,0,0,1,0,7.5310964,0,1 | F,0,0,1,0,0,0,1 @ F,0,0,1,0,0,0,1 @ F,0,0,1,0,0,0,1 @ F,0,0,1,0,0,0,1 @ F,0,0,1,0,0,0,1 @ F,0,0,1,0,0,0,1 @ F,0,0,1,0,0,0,1 @ F,0,0,1,0,0,0,1 @ F,0,0,1,0,0,0,1 @ F,0,0,1,0,0,0,1 @ F,0,0,1,0,0,0,1 @ F,0,0,1,0,0,0,1 @ F,0,0,1,0,2.9277707,0,1 @ F,0,0,1,0,0,0,1 @ F,0,0,1,0,0,0,1 @ F,0,0,1,0,0,0,1 @ F,0,0,1,0,0,0,1 @ F,0,0,1,0,0,0,1 @ F,0,0,1,0,0,0,1 @ F,0,0,1,0,2.6675771,0,1 | F,0,0,1,0,0,0,1 @ F,0,0,1,0,0,0,1 @ F,0,0,1,0,0,0,1 @ F,0,0,1,0,0,0,1 @ F,0,0,1,0,0,0,1 @ F,0,0,1,0,0,0,1 @ F,0,0,1,0,0,0,1 @ F,0,0,1,0,0,0,1 @ F,0,0,1,0,0,0,1 @ F,0,0,1,0,0,0,1 @ F,0,0,1,0,0,0,1 @ F,0,0,1,0,0,0,1 | F,0,0,1,0,0,0,1 @ F,0,0,1,0,0,0,1 @ F,0,0,1,0,0,0,1 @ F,0,0,1,0,0,0,1 @ F,0,0,1,0,0,0,1 @ F,0,0,1,0,0,0,1 @ F,0,0,1,0,0,0,1 @ F,0,0,1,0,0,0,1 @ F,0,0,1,0,0,0,1 @ F,0,0,1,0,0,0,1 @ F,0,0,1,0,0,0,1 @ F,0,0,1,0,0,0,1 @ F,0,0,1,0,0,0,1 @ F,0,0,1,0,0,0,1 @ F,0,0,1,0,0,0,1 @ F,0,0,1,0,0,0,1 @ F,0,0,1,0,0,0,1 @ F,0,0,1,0,0,0,1 @ F,0,0,1,0,0,0,1 @ F,0,0,1,0,0,0,1 @ F,0,0,1,0,0,0,1 @ F,0,0,1,0,0,0,1 @ F,0,0,1,0,0,0,1 @ F,0,0,1,0,0,0,1 @ F,0,0,1,0,0,0,1 | F,0,0,1,0,0,0,1 @ F,0,0,1,0,0,0,1 @ F,0,0,1,0,0,0,1 @ F,0,0,1,0,0,0,1 @ F,0,0,1,0,0,0,1 @ F,0,0,1,0,0,0,1 @ F,0,0,1,0,0,0,1 @ F,0,0,1,0,0,0,1 @ F,0,0,1,0,0,0,1 @ F,0,0,1,0,0,0,1 | F,0,0,1,0,0,0,1 @ F,0,0,1,0,0,0,1 @ F,0,0,1,0,0,0,1 @ F,0,0,1,0,0,0,1 @ F,0,0,1,0,0,0,1 @ F,0,0,1,0,0,0,1 @ F,0,0,1,0,0,0,1 @ F,0,0,1,0,0,0,1 @ F,0,0,1,0,0,0,1 @ F,0,0,1,0,0,0,1 @ F,0,0,1,0,0,0,1 @ F,0,0,1,0,0,0,1 @ F,0,0,1,0,0,0,1 @ F,0,0,1,0,0,0,1 @ F,0,0,1,0,0,0,1 @ F,0,0,1,0,0,0,1 @ F,0,0,1,0,0,0,1 @ F,0,0,1,0,0,0,1"
       radius="0"
       unit="px"
       method="auto"
       mode="F"
       chamfer_steps="1"
       flexible="false"
       use_knot_distance="true"
       apply_no_radius="true"
       apply_with_radius="true"
       only_selected="false"
       hide_knots="false" />
    <inkscape:path-effect
       effect="fillet_chamfer"
       id="path-effect2"
       is_visible="true"
       lpeversion="1"
       nodesatellites_param="F,0,0,1,0,0,0,1 @ F,0,0,1,0,0,0,1 @ F,0,0,1,0,0,0,1 @ F,0,0,1,0,0,0,1 @ F,0,0,1,0,0,0,1 @ F,0,0,1,0,0,0,1 @ F,0,0,1,0,0,0,1 @ F,0,0,1,0,0,0,1 @ F,0,0,1,0,0,0,1 @ F,0,0,1,0,0,0,1 @ F,0,0,1,0,0,0,1 @ F,0,0,1,0,0,0,1 @ F,0,0,1,0,0,0,1 @ F,0,0,1,0,0,0,1 @ F,0,0,1,0,0,0,1 @ F,0,0,1,0,0,0,1 @ F,0,0,1,0,0,0,1 @ F,0,0,1,0,0,0,1 @ F,0,0,1,0,0,0,1 @ F,0,0,1,0,0,0,1 @ F,0,0,1,0,0,0,1 @ F,0,0,1,0,0,0,1 @ F,0,0,1,0,0,0,1 @ F,0,0,1,0,0,0,1 @ F,0,0,1,0,0,0,1 @ F,0,0,1,0,0,0,1 | F,0,0,1,0,0,0,1 @ F,0,0,1,0,0,0,1 @ F,0,0,1,0,0,0,1 @ F,0,0,1,0,0,0,1 @ F,0,0,1,0,0,0,1 @ F,0,0,1,0,0,0,1 @ F,0,0,1,0,0,0,1 @ F,0,0,1,0,0,0,1 @ F,0,0,1,0,0,0,1 @ F,0,0,1,0,0,0,1 @ F,0,0,1,0,0,0,1 @ F,0,0,1,0,0,0,1 @ F,0,0,1,0,0,0,1 @ F,0,0,1,0,0,0,1 @ F,0,0,1,0,0,0,1 @ F,0,0,1,0,0,0,1 @ F,0,0,1,0,0,0,1 @ F,0,0,1,0,0,0,1 @ F,0,0,1,0,0,0,1 @ F,0,0,1,0,0,0,1 | F,0,0,1,0,0,0,1 @ F,0,0,1,0,0,0,1 @ F,0,0,1,0,0,0,1 @ F,0,0,1,0,0,0,1 @ F,0,0,1,0,0,0,1 @ F,0,0,1,0,0,0,1 @ F,0,0,1,0,0,0,1 @ F,0,0,1,0,0,0,1 @ F,0,0,1,0,0,0,1 @ F,0,0,1,0,0,0,1 @ F,0,0,1,0,0,0,1 @ F,0,0,1,0,0,0,1 | F,0,0,1,0,0,0,1 @ F,0,0,1,0,0,0,1 @ F,0,0,1,0,0,0,1 @ F,0,0,1,0,0,0,1 @ F,0,0,1,0,0,0,1 @ F,0,0,1,0,0,0,1 @ F,0,0,1,0,0,0,1 @ F,0,0,1,0,0,0,1 @ F,0,0,1,0,0,0,1 @ F,0,0,1,0,0,0,1 @ F,0,0,1,0,0,0,1 @ F,0,0,1,0,0,0,1 @ F,0,0,1,0,0,0,1 @ F,0,0,1,0,0,0,1 @ F,0,0,1,0,0,0,1 @ F,0,0,1,0,0,0,1 @ F,0,0,1,0,0,0,1 @ F,0,0,1,0,0,0,1 @ F,0,0,1,0,0,0,1 @ F,0,0,1,0,0,0,1 @ F,0,0,1,0,0,0,1 @ F,0,0,1,0,0,0,1 @ F,0,0,1,0,0,0,1 @ F,0,0,1,0,0,0,1 @ F,0,0,1,0,0,0,1 | F,0,0,1,0,0,0,1 @ F,0,0,1,0,0,0,1 @ F,0,0,1,0,0,0,1 @ F,0,0,1,0,0,0,1 @ F,0,0,1,0,0,0,1 @ F,0,0,1,0,0,0,1 @ F,0,0,1,0,0,0,1 @ F,0,0,1,0,0,0,1 @ F,0,0,1,0,0,0,1 @ F,0,0,1,0,0,0,1 | F,0,0,1,0,0,0,1 @ F,0,0,1,0,0,0,1 @ F,0,0,1,0,0,0,1 @ F,0,0,1,0,0,0,1 @ F,0,0,1,0,0,0,1 @ F,0,0,1,0,0,0,1 @ F,0,0,1,0,0,0,1 @ F,0,0,1,0,0,0,1 @ F,0,0,1,0,0,0,1 @ F,0,0,1,0,0,0,1 @ F,0,0,1,0,0,0,1 @ F,0,0,1,0,0,0,1 @ F,0,0,1,0,0,0,1 @ F,0,0,1,0,0,0,1 @ F,0,0,1,0,0,0,1 @ F,0,0,1,0,0,0,1 @ F,0,0,1,0,0,0,1 @ F,0,0,1,0,0,0,1"
       radius="0"
       unit="px"
       method="auto"
       mode="F"
       chamfer_steps="1"
       flexible="false"
       use_knot_distance="true"
       apply_no_radius="true"
       apply_with_radius="true"
       only_selected="false"
       hide_knots="false" />
    <inkscape:path-effect
       effect="fillet_chamfer"
       id="path-effect1"
       is_visible="true"
       lpeversion="1"
       nodesatellites_param="F,0,0,1,0,0,0,1 @ F,0,0,1,0,0,0,1 @ F,0,0,1,0,0,0,1 @ F,0,0,1,0,0,0,1 @ F,0,0,1,0,0,0,1 @ F,0,0,1,0,0,0,1 @ F,0,0,1,0,0,0,1 @ F,0,0,1,0,0,0,1 @ F,0,0,1,0,0,0,1 @ F,0,0,1,0,0,0,1 @ F,0,0,1,0,0,0,1 @ F,0,0,1,0,0,0,1 @ F,0,0,1,0,0,0,1 @ F,0,0,1,0,0,0,1 @ F,0,0,1,0,0,0,1 @ F,0,0,1,0,0,0,1 @ F,0,0,1,0,0,0,1 @ F,0,0,1,0,0,0,1 @ F,0,0,1,0,0,0,1 @ F,0,0,1,0,0,0,1 @ F,0,0,1,0,0,0,1 @ F,0,0,1,0,0,0,1 @ F,0,0,1,0,0,0,1 @ F,0,0,1,0,0,0,1 @ F,0,0,1,0,0,0,1 @ F,0,0,1,0,0,0,1 | F,0,0,1,0,0,0,1 @ F,0,0,1,0,0,0,1 @ F,0,0,1,0,0,0,1 @ F,0,0,1,0,0,0,1 @ F,0,0,1,0,0,0,1 @ F,0,0,1,0,0,0,1 @ F,0,0,1,0,0,0,1 @ F,0,0,1,0,0,0,1 @ F,0,0,1,0,0,0,1 @ F,0,0,1,0,0,0,1 @ F,0,0,1,0,0,0,1 @ F,0,0,1,0,0,0,1 @ F,0,0,1,0,0,0,1 @ F,0,0,1,0,0,0,1 @ F,0,0,1,0,0,0,1 @ F,0,0,1,0,0,0,1 @ F,0,0,1,0,0,0,1 @ F,0,0,1,0,0,0,1 @ F,0,0,1,0,0,0,1 @ F,0,0,1,0,0,0,1 | F,0,0,1,0,0,0,1 @ F,0,0,1,0,0,0,1 @ F,0,0,1,0,0,0,1 @ F,0,0,1,0,0,0,1 @ F,0,0,1,0,0,0,1 @ F,0,0,1,0,0,0,1 @ F,0,0,1,0,0,0,1 @ F,0,0,1,0,0,0,1 @ F,0,0,1,0,0,0,1 @ F,0,0,1,0,0,0,1 @ F,0,0,1,0,0,0,1 @ F,0,0,1,0,0,0,1 | F,0,0,1,0,0,0,1 @ F,0,0,1,0,0,0,1 @ F,0,0,1,0,0,0,1 @ F,0,0,1,0,0,0,1 @ F,0,0,1,0,0,0,1 @ F,0,0,1,0,0,0,1 @ F,0,0,1,0,0,0,1 @ F,0,0,1,0,0,0,1 @ F,0,0,1,0,0,0,1 @ F,0,0,1,0,0,0,1 @ F,0,0,1,0,0,0,1 @ F,0,0,1,0,0,0,1 @ F,0,0,1,0,0,0,1 @ F,0,0,1,0,0,0,1 @ F,0,0,1,0,0,0,1 @ F,0,0,1,0,0,0,1 @ F,0,0,1,0,0,0,1 @ F,0,0,1,0,0,0,1 @ F,0,0,1,0,0,0,1 @ F,0,0,1,0,0,0,1 @ F,0,0,1,0,0,0,1 @ F,0,0,1,0,0,0,1 @ F,0,0,1,0,0,0,1 @ F,0,0,1,0,0,0,1 @ F,0,0,1,0,0,0,1 | F,0,0,1,0,0,0,1 @ F,0,0,1,0,0,0,1 @ F,0,0,1,0,0,0,1 @ F,0,0,1,0,0,0,1 @ F,0,0,1,0,0,0,1 @ F,0,0,1,0,0,0,1 @ F,0,0,1,0,0,0,1 @ F,0,0,1,0,0,0,1 @ F,0,0,1,0,0,0,1 @ F,0,0,1,0,0,0,1 | F,0,0,1,0,0,0,1 @ F,0,0,1,0,0,0,1 @ F,0,0,1,0,0,0,1 @ F,0,0,1,0,0,0,1 @ F,0,0,1,0,0,0,1 @ F,0,0,1,0,0,0,1 @ F,0,0,1,0,0,0,1 @ F,0,0,1,0,0,0,1 @ F,0,0,1,0,0,0,1 @ F,0,0,1,0,0,0,1 @ F,0,0,1,0,0,0,1 @ F,0,0,1,0,0,0,1 @ F,0,0,1,0,0,0,1 @ F,0,0,1,0,0,0,1 @ F,0,0,1,0,0,0,1 @ F,0,0,1,0,0,0,1 @ F,0,0,1,0,0,0,1 @ F,0,0,1,0,0,0,1"
       radius="0"
       unit="px"
       method="auto"
       mode="F"
       chamfer_steps="1"
       flexible="false"
       use_knot_distance="true"
       apply_no_radius="true"
       apply_with_radius="true"
       only_selected="false"
       hide_knots="false" />
  </defs>
  <g
     inkscape:label="Camada 1"
     inkscape:groupmode="layer"
     id="layer1">
    <g
       id="g2"
       transform="translate(-1.3798828e-5,19.741332)"
       inkscape:label="pile">
      <rect
         style="fill:#000000;fill-opacity:1;stroke:none;stroke-width:0.253423;stroke-linecap:round;stroke-linejoin:round;stroke-miterlimit:99946.9;stroke-dasharray:none;stroke-opacity:1;paint-order:fill markers stroke"
         id="rect2-0"
         width="91.701897"
         height="11.618142"
         x="-102.04739"
         y="-114.86343"
         transform="scale(-1)"
         inkscape:export-filename="..\..\..\..\Desktop\logo.png"
         inkscape:export-xdpi="96"
         inkscape:export-ydpi="96"
         inkscape:label="rect2" />
      <rect
         style="fill:#000000;fill-opacity:1;stroke:none;stroke-width:0.253423;stroke-linecap:round;stroke-linejoin:round;stroke-miterlimit:99946.9;stroke-dasharray:none;stroke-opacity:1;paint-order:fill markers stroke"
         id="rect2-0-7"
         width="91.701897"
         height="11.618142"
         x="-102.04739"
         y="-98.219017"
         transform="scale(-1)"
         inkscape:label="rect1" />
      <rect
         style="fill:#000000;fill-opacity:1;stroke:none;stroke-width:0.253423;stroke-linecap:round;stroke-linejoin:round;stroke-miterlimit:99946.9;stroke-dasharray:none;stroke-opacity:1;paint-order:fill markers stroke"
         id="rect2-0-7-9"
         width="91.701897"
         height="11.618142"
         x="-102.04739"
         y="-81.574608"
         transform="scale(-1)"
         inkscape:label="rect0" />
      <path
         id="rect1"
         style="fill:#000000;fill-opacity:1;stroke:none;stroke-width:0.529;stroke-linecap:round;stroke-miterlimit:99946.9;paint-order:fill markers stroke"
         d="m 10.345483,119.8897 v 39.65132 h 7.440373 v -30.19764 h 5.246191 l 0.204122,2.16369 c 0.29938,-0.36741 0.625972,-0.69401 0.979786,-0.97978 0.353812,-0.29938 0.734837,-0.55793 1.143082,-0.77566 0.489898,-0.25856 1.027668,-0.45613 1.612822,-0.59221 0.598761,-0.14969 1.238334,-0.2248 1.918746,-0.2248 1.401644,0 2.639968,0.27268 3.715018,0.81701 1.075049,0.53072 1.979721,1.2857 2.714563,2.26549 0.734846,0.9934 1.286226,2.18436 1.653646,3.57239 0.381029,1.37443 0.571539,2.89852 0.571539,4.57233 v 0.4284 c 0,1.60577 -0.19051,3.0961 -0.571539,4.47053 -0.36742,1.37442 -0.911743,2.55832 -1.632976,3.55172 -0.734843,1.00701 -1.64003,1.79626 -2.71508,2.36781 -1.07505,0.57155 -2.306309,0.85731 -3.694349,0.85731 -0.734843,0 -1.415242,-0.0816 -2.041219,-0.24494 -0.612369,-0.14969 -1.183904,-0.37447 -1.714624,-0.67386 -0.312991,-0.19051 -0.612882,-0.40118 -0.898652,-0.63252 -0.285775,-0.23134 -0.55793,-0.4899 -0.816489,-0.77567 v 10.0304 H 102.04738 V 119.8897 Z m 46.877759,0 h 12.34964 v 26.92652 h 6.32778 v 4.61315 h -18.05317 -0.62425 -18.84071 v -4.61315 h 6.286954 v -12.83953 h -6.286954 v -4.63331 h 12.02304 v 17.47284 h 6.81767 0.62425 5.9893 v -22.10666 h -6.61355 z m -9.696049,0.77824 c 1.007009,0 1.803339,0.28578 2.388489,0.85732 0.59877,0.55794 0.89814,1.27915 0.89814,2.16369 0,0.88453 -0.29937,1.6123 -0.89814,2.18384 -0.58515,0.55794 -1.38148,0.83716 -2.388489,0.83716 -0.489899,0 -0.938955,-0.0751 -1.347204,-0.22479 -0.39464,-0.14969 -0.734841,-0.36036 -1.020611,-0.63252 -0.285769,-0.25856 -0.51056,-0.57154 -0.673861,-0.93896 -0.149771,-0.38103 -0.224276,-0.78927 -0.224276,-1.22473 0,-0.43547 0.0746,-0.83716 0.224276,-1.20458 0.163301,-0.38103 0.388092,-0.70762 0.673861,-0.97979 0.28577,-0.25855 0.625969,-0.46267 1.020611,-0.61236 0.408249,-0.14969 0.857305,-0.22428 1.347204,-0.22428 z m 37.763589,8.2672 c 1.59217,0 3.00739,0.26509 4.24574,0.79582 1.25195,0.5171 2.31338,1.25193 3.1843,2.20451 0.85732,0.95258 1.5105,2.1027 1.95957,3.44992 0.44906,1.33361 0.67386,2.80982 0.67386,4.42919 v 2.40864 h -14.98307 v 0.0615 c 0.19051,0.88453 0.43545,1.59869 0.73484,2.14302 0.29938,0.53072 0.70107,1.01406 1.20458,1.44952 0.51711,0.44907 1.10931,0.79582 1.77612,1.04077 0.6668,0.24495 1.39457,0.36742 2.18385,0.36742 1.11587,0 2.19796,-0.21066 3.24579,-0.63252 1.04782,-0.42185 1.89808,-1.05489 2.55127,-1.89859 l 2.83755,3.06182 c -0.72124,1.02062 -1.86432,1.94596 -3.42925,2.77606 -1.56495,0.83011 -3.41562,1.2454 -5.55211,1.2454 -1.70102,0 -3.24579,-0.2787 -4.63383,-0.83664 -1.38803,-0.55793 -2.57899,-1.32049 -3.57239,-2.28668 -0.99341,-0.95257 -1.76199,-2.07498 -2.30632,-3.36775 -0.53072,-1.30639 -0.79633,-2.70146 -0.79633,-4.18476 v -0.81649 c 0,-1.68742 0.26561,-3.22514 0.79633,-4.61316 0.53073,-1.40164 1.27209,-2.60568 2.22467,-3.61269 0.95257,-1.00701 2.08203,-1.78973 3.38842,-2.34766 1.30639,-0.55794 2.7287,-0.83665 4.26641,-0.83665 z m -0.0403,4.59248 c -0.63959,0 -1.22473,0.11593 -1.75545,0.34727 -0.53071,0.21773 -0.99338,0.53725 -1.38802,0.95911 -0.40825,0.42185 -0.74844,0.92536 -1.02061,1.51051 -0.27217,0.58515 -0.47629,1.23833 -0.61237,1.95957 h 9.30796 v -0.44907 c 0,-0.59877 -0.10887,-1.16324 -0.3266,-1.69396 -0.21773,-0.53073 -0.5171,-0.99338 -0.89813,-1.38802 -0.38103,-0.38103 -0.85027,-0.68041 -1.40818,-0.89814 -0.54433,-0.23134 -1.17736,-0.34727 -1.8986,-0.34727 z m -57.869854,0.0207 c -0.462678,0 -0.884528,0.0473 -1.265557,0.14263 -0.381029,0.0816 -0.728291,0.20412 -1.04128,0.36742 -0.353813,0.19051 -0.666797,0.42892 -0.938959,0.71469 -0.258556,0.28577 -0.483345,0.61891 -0.673862,0.99994 v 9.2263 c 0.176907,0.35381 0.388089,0.67386 0.633038,0.95963 0.258555,0.28576 0.551383,0.53071 0.877983,0.73484 0.312988,0.19051 0.673338,0.3402 1.081587,0.44907 0.408243,0.0953 0.864368,0.14263 1.367874,0.14263 0.802886,0 1.483283,-0.1769 2.041219,-0.53072 0.571544,-0.35381 1.034215,-0.83664 1.388029,-1.44901 0.353814,-0.61236 0.612364,-1.31997 0.775663,-2.12286 0.163297,-0.81649 0.244946,-1.68086 0.244946,-2.59261 v -0.4284 c 0,-0.92537 -0.08871,-1.78971 -0.265617,-2.5926 -0.163297,-0.81649 -0.421848,-1.52412 -0.775663,-2.12287 -0.36742,-0.58515 -0.836638,-1.04782 -1.408183,-1.38803 -0.557935,-0.34021 -1.238332,-0.51005 -2.041218,-0.51005 z"
         sodipodi:nodetypes="cccccccccscccssccssccsccccccccccccccccccccccccccscscscccscccsscccscccccsssccsssccsscsssssccsccssccssccccccccscscsscccs"
         inkscape:label="text" />
    </g>
    <g
       id="g1"
       transform="translate(49.048504,-92.560593)"
       inkscape:label="pile_outline">
      <rect
         style="fill:#ffffff;fill-opacity:1;stroke:#000000;stroke-width:1.864;stroke-linecap:square;stroke-linejoin:miter;stroke-miterlimit:99946.9;stroke-dasharray:none;stroke-opacity:1;paint-order:normal"
         id="rect2-0-2"
         width="91.701897"
         height="11.618142"
         x="-154.10452"
         y="-226.11867"
         transform="scale(-1)"
         inkscape:export-filename="logo_b.png"
         inkscape:export-xdpi="96"
         inkscape:export-ydpi="96"
         inkscape:label="rect2" />
      <rect
         style="fill:#ffffff;fill-opacity:1;stroke:#000000;stroke-width:1.864;stroke-linecap:square;stroke-linejoin:miter;stroke-miterlimit:99946.9;stroke-dasharray:none;stroke-opacity:1;paint-order:normal"
         id="rect2-0-7-3"
         width="91.701897"
         height="11.618142"
         x="-154.10452"
         y="-209.47426"
         transform="scale(-1)"
         inkscape:label="rect1" />
      <rect
         style="fill:#ffffff;fill-opacity:1;stroke:#000000;stroke-width:1.864;stroke-linecap:square;stroke-linejoin:miter;stroke-miterlimit:99946.9;stroke-dasharray:none;stroke-opacity:1;paint-order:normal"
         id="rect2-0-7-9-8"
         width="91.701897"
         height="11.618142"
         x="-154.10452"
         y="-192.82985"
         transform="scale(-1)"
         inkscape:label="rect0" />
      <path
         id="rect1-1"
         style="fill:#ffffff;fill-opacity:1;stroke:#000000;stroke-width:1.864;stroke-linecap:square;stroke-linejoin:miter;stroke-miterlimit:99946.9;stroke-dasharray:none;stroke-opacity:1;paint-order:normal"
         d="m 62.402614,231.14492 v 39.65132 h 7.44037 V 240.5986 h 5.24619 l 0.20413,2.16369 c -0.06665,0.08 0.62597,-0.69401 0.97978,-0.97978 0.35381,-0.29938 0.73484,-0.55793 1.14308,-0.77566 0.4899,-0.25856 1.02767,-0.45613 1.61283,-0.59221 0.59876,-0.14969 1.23833,-0.2248 1.91874,-0.2248 1.40165,0 2.63997,0.27268 3.71502,0.81701 1.07505,0.53072 1.97972,1.2857 2.71456,2.26549 0.73485,0.9934 1.28623,2.18436 1.65365,3.57239 0.38103,1.37443 0.57154,2.89852 0.57154,4.57233 v 0.4284 c 0,1.60577 -0.19051,3.0961 -0.57154,4.47053 -0.36742,1.37442 -0.91174,2.55832 -1.63298,3.55172 -0.73484,1.00701 -1.64003,1.79626 -2.71508,2.36781 -1.07505,0.57155 -2.30631,0.85731 -3.69435,0.85731 -0.73484,0 -1.41524,-0.0816 -2.04122,-0.24494 -0.61236,-0.14969 -1.1839,-0.37447 -1.71462,-0.67386 -0.31299,-0.19051 -0.61288,-0.40118 -0.89865,-0.63252 -0.28578,-0.23134 -0.842617,-0.81526 -0.81649,-0.77567 v 10.0304 h 78.586936 v -39.65132 z m 46.877756,0 h 12.34964 v 26.92652 h 6.32778 v 4.61315 h -18.05317 -0.62425 -18.840706 v -4.61315 h 6.28695 v -12.83953 h -6.28695 V 240.5986 H 102.4627 v 17.47284 h 6.81767 0.62425 5.9893 v -22.10666 h -6.61355 z m -9.696046,0.77824 c 1.007006,0 1.803336,0.28578 2.388486,0.85732 0.59877,0.55794 0.89814,1.27915 0.89814,2.16369 0,0.88453 -0.29937,1.6123 -0.89814,2.18384 -0.58515,0.55794 -1.38148,0.83716 -2.388486,0.83716 -0.4899,0 -0.93896,-0.0751 -1.3472,-0.22479 -0.39464,-0.14969 -0.73485,-0.36036 -1.02062,-0.63252 -0.28576,-0.25856 -0.51056,-0.57154 -0.67386,-0.93896 -0.14977,-0.38103 -0.22427,-0.78927 -0.22427,-1.22473 0,-0.43547 0.0746,-0.83716 0.22427,-1.20458 0.1633,-0.38103 0.3881,-0.70762 0.67386,-0.97979 0.28577,-0.25855 0.62597,-0.46267 1.02062,-0.61236 0.40824,-0.14969 0.8573,-0.22428 1.3472,-0.22428 z m 37.763586,8.2672 c 1.59217,0 3.00739,0.26509 4.24574,0.79582 1.25195,0.5171 2.31338,1.25193 3.1843,2.20451 0.85732,0.95258 1.5105,2.1027 1.95957,3.44992 0.44906,1.33361 0.67386,2.80982 0.67386,4.42919 v 2.40864 h -14.98307 v 0.0615 c 0.19051,0.88453 0.43545,1.59869 0.73484,2.14302 0.29938,0.53072 0.70107,1.01406 1.20458,1.44952 0.51711,0.44907 1.10931,0.79582 1.77612,1.04077 0.6668,0.24495 1.39457,0.36742 2.18385,0.36742 1.11587,0 2.19796,-0.21066 3.24579,-0.63252 1.04782,-0.42185 1.89808,-1.05489 2.55127,-1.89859 l 2.83755,3.06182 c -0.72124,1.02062 -1.86432,1.94596 -3.42925,2.77606 -1.56495,0.83011 -3.41562,1.2454 -5.55211,1.2454 -1.70102,0 -3.24579,-0.2787 -4.63383,-0.83664 -1.38803,-0.55793 -2.57899,-1.32049 -3.57239,-2.28668 -0.99341,-0.95257 -1.76199,-2.07498 -2.30632,-3.36775 -0.53072,-1.30639 -0.79633,-2.70146 -0.79633,-4.18476 v -0.81649 c 0,-1.68742 0.26561,-3.22514 0.79633,-4.61316 0.53073,-1.40164 1.27209,-2.60568 2.22467,-3.61269 0.95257,-1.00701 2.08203,-1.78973 3.38842,-2.34766 1.30639,-0.55794 2.7287,-0.83665 4.26641,-0.83665 z m -0.0403,4.59248 c -0.63959,0 -1.22473,0.11593 -1.75545,0.34727 -0.53071,0.21773 -0.99338,0.53725 -1.38802,0.95911 -0.40825,0.42185 -0.74844,0.92536 -1.02061,1.51051 -0.27217,0.58515 -0.47629,1.23833 -0.61237,1.95957 h 9.30796 v -0.44907 c 0,-0.59877 -0.10887,-1.16324 -0.3266,-1.69396 -0.21773,-0.53073 -0.5171,-0.99338 -0.89813,-1.38802 -0.38103,-0.38103 -0.85027,-0.68041 -1.40818,-0.89814 -0.54433,-0.23134 -1.17736,-0.34727 -1.8986,-0.34727 z m -57.869856,0.0207 c -0.46267,0 -0.88452,0.0473 -1.26555,0.14263 -0.38103,0.0816 -0.72829,0.20412 -1.04128,0.36742 -0.35382,0.19051 -0.6668,0.42892 -0.93896,0.71469 -0.25856,0.28577 -0.48335,0.61891 -0.67386,0.99994 v 9.2263 c 0.1769,0.35381 0.38809,0.67386 0.63303,0.95963 0.25856,0.28576 0.55139,0.53071 0.87799,0.73484 0.31299,0.19051 0.67334,0.3402 1.08158,0.44907 0.40825,0.0953 0.86437,0.14263 1.36788,0.14263 0.80288,0 1.48328,-0.1769 2.04122,-0.53072 0.57154,-0.35381 1.03421,-0.83664 1.38803,-1.44901 0.35381,-0.61236 0.61236,-1.31997 0.77566,-2.12286 0.1633,-0.81649 0.24495,-1.68086 0.24495,-2.59261 v -0.4284 c 0,-0.92537 -0.0887,-1.78971 -0.26562,-2.5926 -0.1633,-0.81649 -0.42185,-1.52412 -0.77566,-2.12287 -0.36742,-0.58515 -0.83664,-1.04782 -1.40819,-1.38803 -0.55793,-0.34021 -1.23833,-0.51005 -2.04122,-0.51005 z"
         sodipodi:nodetypes="cccccccccscccssccssccsccccccccccccccccccccccccccscscscccscccsscccscccccsssccsssccsscssscsccsccsscccsccccccccscscssccc"
         inkscape:label="text" />
    </g>
    <path
       id="rect1-8"
       style="fill:#000000;stroke:none;stroke-width:0.529;stroke-linecap:round;stroke-miterlimit:99946.9;stroke-opacity:1;paint-order:fill markers stroke"
       d="m 10.345486,29.142411 v 39.651331 h 7.44037 V 38.596091 h 5.24619 l 0.20412,2.16369 c 0.29939,-0.36741 0.62598,-0.69401 0.97979,-0.97978 0.353809,-0.29938 0.73484,-0.55793 1.14308,-0.77566 0.4899,-0.25856 1.02767,-0.45613 1.61282,-0.59221 0.59877,-0.14969 1.238338,-0.2248 1.91875,-0.2248 1.40164,0 2.63997,0.27268 3.715019,0.81701 1.075051,0.53072 1.97972,1.2857 2.714561,2.26549 0.734849,0.9934 1.28623,2.18436 1.65365,3.57239 0.381029,1.37443 0.57154,2.898517 0.57154,4.572331 v 0.4284 c 0,1.60577 -0.190511,3.09611 -0.57154,4.47054 -0.36742,1.37442 -0.91174,2.55832 -1.63298,3.55172 -0.734842,1.00701 -1.64003,1.79626 -2.71508,2.36781 -1.075052,0.57155 -2.30631,0.85731 -3.69435,0.85731 -0.734842,0 -1.41524,-0.0816 -2.04122,-0.24494 -0.61236,-0.14969 -1.1839,-0.37447 -1.71462,-0.67386 -0.31299,-0.19051 -0.61288,-0.40118 -0.89865,-0.63252 -0.28578,-0.23134 -0.55793,-0.4899 -0.81649,-0.77567 v 10.0304 H 102.04738 V 29.142411 Z m 46.877756,0 h 12.34964 v 26.926531 h 6.32778 v 4.61315 h -18.05317 -0.62425 -18.840706 v -4.61315 h 6.28695 V 43.229401 h -6.28695 v -4.63331 h 12.023026 v 17.472851 h 6.81768 0.62425 5.9893 V 33.962271 h -6.61355 z m -9.696046,0.77824 c 1.007006,0 1.803326,0.28578 2.388476,0.85732 0.59877,0.55794 0.89814,1.27915 0.89814,2.16369 0,0.88453 -0.29937,1.6123 -0.89814,2.18384 -0.58515,0.55794 -1.38147,0.83716 -2.388476,0.83716 -0.4899,0 -0.93896,-0.0751 -1.34721,-0.22479 -0.39464,-0.14969 -0.73484,-0.36036 -1.02061,-0.63252 -0.28577,-0.25856 -0.51056,-0.57154 -0.67386,-0.93896 -0.149771,-0.38103 -0.224271,-0.78927 -0.224271,-1.22473 0,-0.43547 0.0746,-0.83716 0.224271,-1.20458 0.1633,-0.38103 0.38809,-0.70762 0.67386,-0.97979 0.28577,-0.25855 0.62597,-0.46267 1.02061,-0.61236 0.40825,-0.14969 0.85731,-0.22428 1.34721,-0.22428 z m 37.763586,8.2672 c 1.59217,0 3.00739,0.26509 4.24574,0.79582 1.25195,0.5171 2.31338,1.25193 3.1843,2.20451 0.85732,0.95258 1.5105,2.1027 1.95957,3.44992 0.44906,1.33361 0.67386,2.809817 0.67386,4.429191 v 2.40864 h -14.98307 v 0.0615 c 0.19051,0.88454 0.43545,1.5987 0.73484,2.14303 0.29938,0.53072 0.70107,1.01406 1.20458,1.44952 0.51711,0.44907 1.10931,0.79582 1.77612,1.04077 0.6668,0.24495 1.39457,0.36742 2.18385,0.36742 1.11587,0 2.19796,-0.21066 3.24579,-0.63252 1.04782,-0.42185 1.89808,-1.05489 2.55127,-1.89859 l 2.83755,3.06182 c -0.72124,1.02062 -1.86432,1.94596 -3.42925,2.77606 -1.56495,0.83011 -3.41562,1.2454 -5.55211,1.2454 -1.70102,0 -3.24579,-0.2787 -4.63383,-0.83664 -1.38803,-0.55793 -2.57899,-1.32049 -3.57239,-2.28668 -0.99341,-0.95257 -1.76199,-2.07498 -2.30632,-3.36775 -0.53072,-1.30639 -0.79633,-2.70147 -0.79633,-4.18477 v -0.81649 c 0,-1.687424 0.26561,-3.225141 0.79633,-4.613161 0.53073,-1.40164 1.27209,-2.60568 2.22467,-3.61269 0.95257,-1.00701 2.08203,-1.78973 3.38842,-2.34766 1.30639,-0.55794 2.7287,-0.83665 4.26641,-0.83665 z m -0.0403,4.59248 c -0.63959,0 -1.22473,0.11593 -1.75545,0.34727 -0.53071,0.21773 -0.99338,0.53725 -1.38802,0.95911 -0.40825,0.42185 -0.74844,0.92536 -1.02061,1.51051 -0.27217,0.58515 -0.47629,1.238327 -0.61237,1.959567 h 9.30796 v -0.44907 c 0,-0.598767 -0.10887,-1.163237 -0.3266,-1.693957 -0.21773,-0.53073 -0.5171,-0.99338 -0.89813,-1.38802 -0.38103,-0.38103 -0.85027,-0.68041 -1.40818,-0.89814 -0.54433,-0.23134 -1.17736,-0.34727 -1.8986,-0.34727 z m -57.869856,0.0207 c -0.462681,0 -0.88452,0.0473 -1.26555,0.14263 -0.38103,0.0816 -0.728291,0.20412 -1.04128,0.36742 -0.35382,0.19051 -0.6668,0.42892 -0.93896,0.71469 -0.25856,0.28577 -0.48335,0.61891 -0.67386,0.99994 v 9.226311 c 0.1769,0.35381 0.38809,0.67386 0.63303,0.95963 0.25856,0.28576 0.55139,0.53071 0.87799,0.73484 0.312979,0.19051 0.673339,0.3402 1.08158,0.44907 0.40825,0.0953 0.864369,0.14263 1.36788,0.14263 0.80288,0 1.483279,-0.1769 2.04122,-0.53072 0.571539,-0.35381 1.03421,-0.83664 1.38803,-1.44901 0.353808,-0.61236 0.612358,-1.31997 0.77566,-2.12286 0.1633,-0.8165 0.24495,-1.68087 0.24495,-2.59262 v -0.4284 c 0,-0.92537 -0.0887,-1.789714 -0.26562,-2.592604 -0.1633,-0.816487 -0.42185,-1.524117 -0.77566,-2.122867 -0.36742,-0.58515 -0.83664,-1.04782 -1.40819,-1.38803 -0.55793,-0.34021 -1.238332,-0.51005 -2.04122,-0.51005 z"
       sodipodi:nodetypes="cccccccccscccssccssccsccccccccccccccccccccccccccscscscccscccsscccscccccsssccsssccsscsssssccsccssccssccccccccscscsscccs"
       inkscape:export-filename="logo_text_b.svg"
       inkscape:export-xdpi="96"
       inkscape:export-ydpi="96"
       inkscape:label="compact_bw" />
    <path
       d="m 115.15685,68.793742 h 6.18326 v -11.34341 c 0.28173,0.311387 0.57829,0.593119 0.88968,0.845196 0.31139,0.252075 0.6376,0.481908 0.97865,0.689501 0.57829,0.326215 1.20107,0.570876 1.86832,0.733983 0.68209,0.17794 1.42349,0.266909 2.22421,0.266909 1.51245,0 2.85438,-0.311388 4.02578,-0.934164 1.17143,-0.622776 2.15749,-1.482799 2.95818,-2.580069 0.78589,-1.082443 1.37902,-2.372477 1.77938,-3.870104 0.41519,-1.497627 0.62278,-3.121292 0.62278,-4.870995 v -0.467081 c 0,-1.823842 -0.20759,-3.484576 -0.62278,-4.982203 -0.40036,-1.512455 -1.0009,-2.809905 -1.80162,-3.892348 -0.80069,-1.067615 -1.78675,-1.890568 -2.95818,-2.46886 -1.1714,-0.593119 -2.52074,-0.889677 -4.04802,-0.889677 -0.74141,0 -1.43834,0.08156 -2.09077,0.244669 -0.6376,0.148286 -1.2233,0.363292 -1.75711,0.645018 -0.44483,0.237247 -0.86002,0.518979 -1.24555,0.845194 -0.38553,0.311388 -0.7414,0.66726 -1.06761,1.067617 l -0.22243,-2.357653 h -5.71618 z m 15.34697,-21.530236 v 0.467081 c 0,0.993474 -0.089,1.935053 -0.26688,2.824731 -0.17792,0.874851 -0.45966,1.645907 -0.84521,2.313167 -0.38551,0.667259 -0.88966,1.193652 -1.51244,1.579179 -0.60795,0.385528 -1.34935,0.578292 -2.2242,0.578292 -0.54865,0 -1.04539,-0.0519 -1.49023,-0.155709 -0.44483,-0.118634 -0.83777,-0.28174 -1.17881,-0.489323 -0.35587,-0.22242 -0.67468,-0.489323 -0.95641,-0.800711 -0.2669,-0.311388 -0.49673,-0.659846 -0.6895,-1.045372 V 42.481465 c 0.20759,-0.415183 0.45225,-0.778469 0.73398,-1.089858 0.29657,-0.311388 0.63761,-0.570876 1.02314,-0.778469 0.34105,-0.17794 0.71916,-0.311391 1.13432,-0.400355 0.41519,-0.103806 0.87486,-0.155709 1.37903,-0.155709 0.87485,0 1.61625,0.18535 2.2242,0.556049 0.62276,0.3707 1.13432,0.874852 1.53468,1.512457 0.38553,0.652431 0.66727,1.423485 0.84521,2.313164 0.19276,0.874851 0.28914,1.816429 0.28914,2.824732 z m 7.09551,-11.788252 v 5.048932 h 6.85053 v 13.990206 h -6.85053 v 5.026686 h 20.52969 v -5.026686 h -7.42914 V 35.475253 Z m 6.4057,-6.161027 c 0,0.474495 0.0815,0.919335 0.24464,1.334517 0.17792,0.400357 0.42258,0.741403 0.73398,1.023134 0.31138,0.296559 0.68208,0.526392 1.11209,0.689501 0.44485,0.163113 0.93418,0.244669 1.46798,0.244669 1.09727,0 1.9647,-0.303975 2.60231,-0.911921 0.65243,-0.622774 0.97865,-1.416071 0.97865,-2.379893 0,-0.963818 -0.32622,-1.749701 -0.97865,-2.357648 -0.63761,-0.622776 -1.50504,-0.934164 -2.60231,-0.934164 -0.5338,0 -1.02313,0.08156 -1.46798,0.244669 -0.43001,0.163113 -0.80071,0.385533 -1.11209,0.66726 -0.31138,0.296561 -0.55604,0.652433 -0.73398,1.067616 -0.16309,0.400355 -0.24464,0.83778 -0.24464,1.312276 z m 14.12399,-3.936832 v 5.048929 h 7.2064 v 24.088068 h -7.2064 v 5.026686 h 20.35143 v -5.026686 h -6.89501 V 25.377395 Z m 31.27257,34.608525 c 2.328,0 4.34461,-0.452255 6.04983,-1.356763 1.70522,-0.904508 2.95077,-1.91281 3.73664,-3.02491 l -3.09162,-3.336295 c -0.71176,0.919334 -1.63851,1.608835 -2.78026,2.068503 -1.14175,0.459667 -2.32058,0.689501 -3.53648,0.689501 -0.86003,0 -1.65332,-0.133452 -2.37988,-0.400355 -0.72657,-0.266903 -1.37159,-0.645016 -1.93506,-1.134341 -0.54862,-0.474496 -0.98604,-1.000889 -1.31227,-1.579179 -0.32621,-0.593122 -0.59311,-1.37159 -0.8007,-2.335409 v -0.06672 h 16.32561 v -2.624556 c 0,-1.764529 -0.24466,-3.373365 -0.73398,-4.826509 -0.48934,-1.467971 -1.20109,-2.720937 -2.13524,-3.758896 -0.94899,-1.037959 -2.10557,-1.838671 -3.46976,-2.402134 -1.34934,-0.578291 -2.89145,-0.867436 -4.62633,-0.867436 -1.67557,0 -3.22509,0.303974 -4.64856,0.911922 -1.42349,0.607947 -2.65422,1.460556 -3.69219,2.557826 -1.03795,1.097271 -1.84607,2.409548 -2.42436,3.93683 -0.5783,1.512455 -0.86745,3.188019 -0.86745,5.02669 v 0.889678 c 0,1.616251 0.28915,3.13612 0.86745,4.559606 0.59312,1.408659 1.4309,2.631969 2.51335,3.669928 1.08244,1.052788 2.37989,1.883156 3.89235,2.491103 1.51245,0.607947 3.19542,0.911921 5.04891,0.911921 z m -0.73398,-19.951057 c 0.78589,0 1.47539,0.126036 2.0685,0.378112 0.60795,0.237248 1.11951,0.563464 1.5347,0.978647 0.41519,0.430012 0.7414,0.934164 0.97865,1.512456 0.23725,0.57829 0.35587,1.193651 0.35587,1.846082 v 0.489324 h -10.14234 c 0.14827,-0.785883 0.37069,-1.497626 0.66726,-2.135229 0.29655,-0.637605 0.66725,-1.18624 1.11208,-1.645907 0.43001,-0.459667 0.93417,-0.808125 1.51247,-1.045373 0.5783,-0.252075 1.2159,-0.378112 1.91281,-0.378112 z"
       id="text2"
       style="font-size:15.771px;font-family:'Roboto Mono';-inkscape-font-specification:'Roboto Mono, Normal';letter-spacing:-2.23308px;word-spacing:0px;stroke-width:5.38381;stroke-linecap:square;stroke-miterlimit:99946.9"
       aria-label="pile"
       sodipodi:nodetypes="cccsccssccsscccsccccccccscccsccccccccscccsccccccccccccscccscscscccsscccccccccccssccssscccccscccssscssccssssccssccsccs"
       inkscape:label="compact_text" />
    <text
       xml:space="preserve"
       style="font-size:5.92207px;font-family:'Roboto Mono';-inkscape-font-specification:'Roboto Mono, Normal';letter-spacing:-0.838529px;word-spacing:0px;fill:#000000;stroke-width:0.699938;stroke-linecap:square;stroke-miterlimit:99946.9"
       x="17.641642"
       y="19.216969"
       id="text1"
       inkscape:label="text0"><tspan
         sodipodi:role="line"
         id="tspan1"
         style="stroke-width:0.699938"
         x="17.641642"
         y="19.216969">compact logo, white on black</tspan></text>
    <text
       xml:space="preserve"
       style="font-size:5.92207px;font-family:'Roboto Mono';-inkscape-font-specification:'Roboto Mono, Normal';letter-spacing:-0.838529px;word-spacing:0px;fill:#000000;stroke-width:0.699938;stroke-linecap:square;stroke-miterlimit:99946.9"
       x="25.153709"
       y="191.38582"
       id="text1-05"
       inkscape:label="text4"><tspan
         sodipodi:role="line"
         id="tspan1-1"
         style="stroke-width:0.699938"
         x="25.153709"
         y="191.38582">alternative (unused)</tspan></text>
    <text
       xml:space="preserve"
       style="font-size:5.92207px;font-family:'Roboto Mono';-inkscape-font-specification:'Roboto Mono, Normal';letter-spacing:-0.838529px;word-spacing:0px;fill:#000000;stroke-width:0.699938;stroke-linecap:square;stroke-miterlimit:99946.9"
       x="125.60284"
       y="19.201065"
       id="text1-0"
       inkscape:label="text1"><tspan
         sodipodi:role="line"
         id="tspan1-8"
         style="stroke-width:0.699938"
         x="125.60284"
         y="19.201065">compact logo, text only</tspan></text>
    <text
       xml:space="preserve"
       style="font-size:5.92207px;font-family:'Roboto Mono';-inkscape-font-specification:'Roboto Mono, Normal';letter-spacing:-0.838529px;word-spacing:0px;fill:#000000;stroke-width:0.699938;stroke-linecap:square;stroke-miterlimit:99946.9"
       x="131.1208"
       y="81.231644"
       id="text1-0-4"
       inkscape:label="text3"><tspan
         sodipodi:role="line"
         id="tspan1-8-4"
         style="stroke-width:0.699938"
         x="131.1208"
         y="81.231644">full logo, outlined</tspan></text>
    <text
       xml:space="preserve"
       style="font-size:5.92207px;font-family:'Roboto Mono';-inkscape-font-specification:'Roboto Mono, Normal';letter-spacing:-0.838529px;word-spacing:0px;fill:#000000;stroke-width:0.699938;stroke-linecap:square;stroke-miterlimit:99946.9"
       x="21.701565"
       y="81.231644"
       id="text1-0-4-7"
       inkscape:label="text2"><tspan
         sodipodi:role="line"
         id="tspan1-8-4-7"
         style="stroke-width:0.699938"
         x="21.701565"
         y="81.231644">full logo, white on black</tspan></text>
    <path
       id="text4"
       style="font-size:15.771px;font-family:'Roboto Mono';-inkscape-font-specification:'Roboto Mono, Normal';letter-spacing:-2.23308px;word-spacing:0px;stroke-width:4.79227;stroke-linecap:square;stroke-miterlimit:99946.9"
       d="m 59.954402,201.23682 c -0.475158,0 -0.911362,0.0728 -1.307326,0.21802 -0.382762,0.14526 -0.712619,0.34308 -0.989792,0.59386 -0.277175,0.26399 -0.493949,0.58037 -0.652333,0.94995 -0.145182,0.35636 -0.217889,0.74547 -0.217889,1.16783 0,0.42236 0.07271,0.81818 0.217889,1.18773 0.158397,0.35639 0.37516,0.66064 0.652333,0.91141 0.277173,0.26399 0.60703,0.46863 0.989792,0.61382 0.395964,0.14526 0.832168,0.21776 1.307326,0.21776 0.976705,0 1.748169,-0.27063 2.315716,-0.81176 0.580744,-0.55435 0.871548,-1.26116 0.871548,-2.11909 0,-0.85793 -0.290804,-1.55669 -0.871548,-2.09783 -0.567547,-0.55434 -1.339011,-0.8317 -2.315716,-0.8317 z m -18.076676,8.01798 c -0.65994,0 -1.279266,0.0728 -1.860013,0.21802 -0.567545,0.13189 -1.089913,0.32317 -1.565067,0.57396 -0.395962,0.21108 -0.764869,0.46159 -1.108038,0.75195 -0.343167,0.2772 -0.659563,0.59359 -0.949935,0.94994 l -0.197964,-2.09782 H 31.10825 v 29.65791 h 5.50431 6.414389 V 260.7494 H 31.175437 v 4.47465 H 54.727763 V 260.7494 H 48.589717 V 234.81418 H 36.61256 v -5.60264 c 0.250771,0.27718 0.51466,0.52761 0.791835,0.75198 0.277173,0.22445 0.566648,0.42902 0.870219,0.61379 0.514753,0.29037 1.06944,0.50849 1.663384,0.65367 0.607143,0.15837 1.266854,0.23781 1.979586,0.23781 1.346274,0 2.540483,-0.27732 3.583182,-0.83168 1.042702,-0.55435 1.920516,-1.32042 2.633248,-2.29712 0.699535,-0.9635 1.227305,-2.11192 1.583668,-3.44501 0.369566,-1.33307 0.555349,-2.7777 0.555349,-4.33516 v -0.41585 c 0,-1.62344 -0.185778,-3.10171 -0.555349,-4.43478 -0.356363,-1.34629 -0.890863,-2.50144 -1.603595,-3.46496 -0.712735,-0.95031 -1.589217,-1.68272 -2.631919,-2.19746 -1.042702,-0.52797 -2.244969,-0.79185 -3.604442,-0.79185 z m 9.207068,0.39593 v 4.49458 h 6.098186 v 12.45281 h -6.098186 v 4.47465 h 22.584982 v -4.47465 H 62.745748 v -16.94739 z m -10.671163,4.07875 c 0.778726,0 1.438437,0.16429 1.979586,0.49422 0.554348,0.32998 1.009416,0.77964 1.365779,1.34718 0.34317,0.58075 0.593594,1.26604 0.751978,2.05798 0.171586,0.77872 0.257744,1.61749 0.257744,2.51499 v 0.41585 c 0,0.88434 -0.07942,1.72175 -0.237814,2.51368 -0.158396,0.77872 -0.408811,1.46535 -0.751975,2.05929 -0.343169,0.59394 -0.791506,1.06248 -1.345852,1.40565 -0.541151,0.34314 -1.202186,0.5155 -1.980915,0.5155 -0.488354,0 -0.929963,-0.047 -1.325925,-0.1396 -0.395964,-0.10567 -0.746005,-0.25093 -1.049579,-0.43578 -0.316768,-0.19796 -0.600844,-0.43495 -0.851621,-0.71213 -0.237582,-0.27718 -0.440891,-0.58682 -0.612475,-0.92999 v -8.94934 c 0.184775,-0.36955 0.401556,-0.69269 0.652333,-0.96987 0.263976,-0.27717 0.568239,-0.50872 0.911408,-0.69352 0.303569,-0.15837 0.640154,-0.27684 1.009722,-0.35605 0.369563,-0.0923 0.77885,-0.13806 1.227606,-0.13806 z m 23.421554,29.67649 c -1.491458,0 -2.871447,0.27062 -4.13853,0.81176 -1.26708,0.54113 -2.361667,1.30048 -3.28558,2.2772 -0.923914,0.97672 -1.644192,2.14531 -2.158944,3.50479 -0.514751,1.34628 -0.771906,2.83669 -0.771906,4.47334 v 0.79317 c 0,1.43866 0.257155,2.79039 0.771906,4.05746 0.527952,1.25389 1.273823,2.34308 2.23733,3.267 0.963509,0.93712 2.118665,1.67624 3.464941,2.2174 1.346273,0.54114 2.844745,0.81176 4.494588,0.81176 2.072207,0 3.866882,-0.40254 5.384739,-1.20768 1.517857,-0.80513 2.625905,-1.70314 3.325438,-2.69303 l -2.751491,-2.96939 c -0.633542,0.81834 -1.458843,1.43226 -2.475147,1.84143 -1.016304,0.40914 -2.065109,0.61379 -3.147407,0.61379 -0.765529,0 -1.472348,-0.11852 -2.119089,-0.35605 -0.646738,-0.23755 -1.220286,-0.57418 -1.721839,-1.00972 -0.488355,-0.42239 -0.877452,-0.89089 -1.167824,-1.40565 -0.290372,-0.52794 -0.528664,-1.22131 -0.713447,-2.0792 v -0.0599 h 14.53202 v -2.33564 c 0,-1.57065 -0.218095,-3.00314 -0.653662,-4.29664 -0.43556,-1.30666 -1.06835,-2.42143 -1.899871,-3.34536 -0.844723,-0.9239 -1.874665,-1.63613 -3.088951,-2.13768 -1.201086,-0.51475 -2.573018,-0.77324 -4.117274,-0.77324 z m -0.03985,4.45473 c 0.699535,0 1.313463,0.11313 1.841415,0.33747 0.541148,0.21107 0.996214,0.50064 1.365779,0.87022 0.369568,0.38277 0.660372,0.83243 0.871551,1.34718 0.211178,0.51476 0.316202,1.06137 0.316202,1.64213 v 0.43577 h -9.027709 c 0.131993,-0.69953 0.329906,-1.33232 0.593877,-1.89986 0.263976,-0.56757 0.59383,-1.05628 0.989791,-1.46542 0.382765,-0.4092 0.8311,-0.71884 1.345852,-0.93002 0.514753,-0.22445 1.082899,-0.33747 1.703242,-0.33747 z"
       sodipodi:nodetypes="scccscccscscssccccccccccccccccccsccssccsscccscccccccccccscccsscscsccccccccsssscssccsssccssscccccscccssccssccsccs"
       inkscape:label="alternative" />
    <text
       xml:space="preserve"
       style="font-size:5.92207px;font-family:'Roboto Mono';-inkscape-font-specification:'Roboto Mono, Normal';letter-spacing:-0.838529px;word-spacing:0px;fill:#000000;stroke-width:0.699938;stroke-linecap:square;stroke-miterlimit:99946.9"
       x="103.43823"
       y="191.38582"
       id="text1-05-5"
       inkscape:label="text5"><tspan
         sodipodi:role="line"
         id="tspan1-1-3"
         style="stroke-width:0.699938"
         x="103.43823"
         y="191.38582">alternative, white on black (unused)</tspan></text>
    <text
       xml:space="preserve"
       style="font-size:5.92207px;font-family:'Roboto Mono';-inkscape-font-specification:'Roboto Mono, Normal';letter-spacing:-0.838529px;word-spacing:0px;fill:#000000;stroke-width:0.699938;stroke-linecap:square;stroke-miterlimit:99946.9"
       x="9.9146156"
       y="290.52087"
       id="text1-05-5-9"
       inkscape:label="font"><tspan
         sodipodi:role="line"
         id="tspan1-1-3-8"
         style="stroke-width:0.699938"
         x="9.9146156"
         y="290.52087">Font used: Roboto Mono</tspan></text>
    <text
       xml:space="preserve"
       style="font-size:5.92207px;font-family:'Roboto Mono';-inkscape-font-specification:'Roboto Mono, Normal';letter-spacing:-0.838529px;word-spacing:0px;fill:#000000;stroke-width:0.699938;stroke-linecap:square;stroke-miterlimit:99946.9"
       x="131.57483"
       y="290.0105"
       id="text1-05-5-9-5"
       inkscape:label="copy"><tspan
         sodipodi:role="line"
         id="tspan1-1-3-8-8"
         style="stroke-width:0.699938"
         x="131.57483"
         y="290.0105">Copyright(c) Marcio Dantas</tspan></text>
    <text
       xml:space="preserve"
       style="font-size:8.49294px;font-family:'Roboto Mono';-inkscape-font-specification:'Roboto Mono, Normal';letter-spacing:-1.20255px;word-spacing:0px;fill:#000000;stroke-width:1.00379;stroke-linecap:square;stroke-miterlimit:99946.9"
       x="84.852531"
       y="291.2449"
       id="text1-05-5-9-5-4"
       inkscape:label="license"><tspan
         sodipodi:role="line"
         id="tspan1-1-3-8-8-9"
         style="stroke-width:1.00379"
         x="84.852531"
         y="291.2449">CC-BY-4.0</tspan></text>
    <path
       id="rect6"
       style="fill:#000000;stroke-width:1.864;stroke-linecap:square;stroke-miterlimit:99946.9"
       d="m 134.30602,196.95981 v 71.42871 h 41.61026 v -71.42871 z m 27.81903,3.52278 c 0.9767,0 1.74807,0.27764 2.31562,0.83199 0.58074,0.54113 0.87178,1.23962 0.87178,2.09756 0,0.85793 -0.29104,1.56489 -0.87178,2.11924 -0.56755,0.54115 -1.33892,0.81184 -2.31562,0.81184 -0.47515,0 -0.91146,-0.0728 -1.30742,-0.21808 -0.38277,-0.14518 -0.71243,-0.34941 -0.9896,-0.6134 -0.27718,-0.25077 -0.49376,-0.55518 -0.65216,-0.91157 -0.14519,-0.36955 -0.21807,-0.76568 -0.21807,-1.18804 0,-0.42236 0.0729,-0.81101 0.21807,-1.16737 0.15839,-0.36958 0.37498,-0.68634 0.65216,-0.95033 0.27717,-0.25077 0.60683,-0.4485 0.9896,-0.59376 0.39596,-0.14522 0.83227,-0.21808 1.30742,-0.21808 z m -18.07642,8.01813 c 1.35947,0 2.56173,0.26423 3.60443,0.7922 1.0427,0.51474 1.91914,1.24697 2.63188,2.19728 0.71273,0.96352 1.24716,2.11861 1.60352,3.4649 0.36957,1.33307 0.55552,2.81144 0.55552,4.43487 v 0.416 c 0,1.55746 -0.18595,3.00207 -0.55552,4.33514 -0.35636,1.33307 -0.88434,2.48124 -1.58388,3.44475 -0.71273,0.97669 -1.59022,1.74266 -2.63292,2.29701 -1.0427,0.55436 -2.23696,0.83198 -3.58324,0.83198 -0.71273,0 -1.37258,-0.0798 -1.97972,-0.23822 -0.59394,-0.14518 -1.14872,-0.36282 -1.66347,-0.65319 -0.30358,-0.18476 -0.59306,-0.38947 -0.87023,-0.61392 -0.27718,-0.22437 -0.54091,-0.47471 -0.79168,-0.75189 v 5.60224 h 11.97704 v 25.93537 h 6.13813 v 4.47466 h -22.59247 v -4.47466 h 10.89189 v -21.44055 h -6.41459 -4.4773 v -29.65814 h 4.0613 l 0.19792,2.09806 c 0.29038,-0.35636 0.60716,-0.67261 0.95033,-0.94981 0.34317,-0.29037 0.71199,-0.54081 1.10795,-0.75189 0.47514,-0.25079 0.99722,-0.44224 1.56476,-0.57413 0.58075,-0.14522 1.20041,-0.21807 1.86035,-0.21806 z m 9.20667,0.39584 h 11.66131 v 16.94728 h 10.99967 v 4.47467 H 153.2553 v -4.47467 h 6.09834 v -12.45247 h -6.09834 z m -10.67118,4.07882 c -0.44875,0 -0.85776,0.0457 -1.22732,0.13797 -0.36957,0.0792 -0.70618,0.19768 -1.00975,0.35606 -0.34317,0.1848 -0.64761,0.41632 -0.91158,0.69349 -0.25078,0.27718 -0.46737,0.60042 -0.65215,0.96997 v 8.94932 c 0.17159,0.34316 0.37478,0.65299 0.61236,0.93018 0.25078,0.27717 0.53486,0.51414 0.85163,0.7121 0.30357,0.18485 0.65358,0.32996 1.04955,0.43563 0.39596,0.0926 0.83767,0.13953 1.32602,0.13953 0.77873,0 1.4396,-0.17207 1.98075,-0.51521 0.55434,-0.34317 1.00301,-0.81166 1.34618,-1.4056 0.34315,-0.59394 0.59349,-1.28059 0.75189,-2.05931 0.15841,-0.79193 0.23771,-1.62972 0.23771,-2.51406 v -0.41548 c 0,-0.89749 -0.0863,-1.73637 -0.25787,-2.51509 -0.15839,-0.79194 -0.40872,-1.47752 -0.75189,-2.05827 -0.35637,-0.56754 -0.81146,-1.01722 -1.36581,-1.3472 -0.54115,-0.32993 -1.20099,-0.49403 -1.97972,-0.49403 z m 23.42183,29.67622 c 1.54424,0 2.91597,0.25885 4.11706,0.77359 1.21429,0.50156 2.24449,1.21344 3.08921,2.13734 0.83152,0.92393 1.46407,2.03887 1.89963,3.34553 0.43557,1.2935 0.65371,2.72573 0.65371,4.29638 v 2.33578 h -14.53193 v 0.06 c 0.18479,0.85789 0.42328,1.55151 0.71365,2.07945 0.29037,0.51477 0.67954,0.98321 1.16789,1.4056 0.50156,0.43554 1.07461,0.7722 1.72134,1.00975 0.64675,0.23753 1.35372,0.35605 2.11925,0.35605 1.0823,0 2.13131,-0.20477 3.14761,-0.61391 1.0163,-0.40917 1.84124,-1.02289 2.47478,-1.84123 l 2.75177,2.96932 c -0.69953,0.98989 -1.80752,1.88773 -3.32537,2.69286 -1.51786,0.80514 -3.31248,1.20768 -5.38469,1.20768 -1.64984,0 -3.14854,-0.2707 -4.49481,-0.81184 -1.34627,-0.54115 -2.5014,-1.28031 -3.46491,-2.21743 -0.96351,-0.92392 -1.70912,-2.0131 -2.23707,-3.26699 -0.51475,-1.26706 -0.77205,-2.61845 -0.77205,-4.05711 v -0.79324 c 0,-1.63664 0.2573,-3.12735 0.77205,-4.47362 0.51475,-1.35948 1.2346,-2.52799 2.15852,-3.5047 0.92391,-0.97673 2.01851,-1.73625 3.28559,-2.27738 1.26708,-0.54114 2.64731,-0.81132 4.13877,-0.81132 z m -0.0398,4.45503 c -0.62035,0 -1.18849,0.113 -1.70325,0.33745 -0.51475,0.21118 -0.9634,0.52096 -1.34617,0.93016 -0.39596,0.40914 -0.72563,0.89747 -0.98961,1.46504 -0.26397,0.56754 -0.46176,1.2006 -0.59376,1.90014 h 9.02736 v -0.43563 c 0,-0.58076 -0.10457,-1.12752 -0.31574,-1.64229 -0.21118,-0.51476 -0.50222,-0.96444 -0.87179,-1.34719 -0.36956,-0.36958 -0.82465,-0.65916 -1.3658,-0.87023 -0.52795,-0.22434 -1.14171,-0.33745 -1.84124,-0.33745 z"
       sodipodi:nodetypes="cccccscscscccscccsscccssccsscccccccccccccccccccccscccccccccccsccccccccscscsscccsccccscccccsssccsssccsscssccsccsccssccs"
       inkscape:label="alternative_bw" />
  </g>
</svg>
