<?xml version="1.0" encoding="UTF-8" standalone="no"?>
<!-- Created with Inkscape (http://www.inkscape.org/) -->

<svg
   width="42.561527mm"
   height="64.383041mm"
   viewBox="0 0 42.561527 64.383041"
   version="1.1"
   id="svg1"
   inkscape:export-filename="logo.svg"
   inkscape:export-xdpi="96"
   inkscape:export-ydpi="96"
   inkscape:version="1.3.2 (091e20e, 2023-11-25, custom)"
   sodipodi:docname="logo.svg"
   xmlns:inkscape="http://www.inkscape.org/namespaces/inkscape"
   xmlns:sodipodi="http://sodipodi.sourceforge.net/DTD/sodipodi-0.dtd"
   xmlns="http://www.w3.org/2000/svg"
   xmlns:svg="http://www.w3.org/2000/svg">
  <sodipodi:namedview
     id="namedview1"
     pagecolor="#ffffff"
     bordercolor="#000000"
     borderopacity="0.25"
     inkscape:showpageshadow="2"
     inkscape:pageopacity="0.0"
     inkscape:pagecheckerboard="0"
     inkscape:deskcolor="#d1d1d1"
     inkscape:document-units="mm"
     showguides="false"
     inkscape:zoom="1.1500512"
     inkscape:cx="424.7637"
     inkscape:cy="814.31157"
     inkscape:window-width="1920"
     inkscape:window-height="1009"
     inkscape:window-x="-8"
     inkscape:window-y="-8"
     inkscape:window-maximized="1"
     inkscape:current-layer="layer1"
     inkscape:export-bgcolor="#ffffff00" />
  <defs
     id="defs1" />
  <g
     inkscape:label="Camada 1"
     inkscape:groupmode="layer"
     id="layer1"
     transform="translate(-31.10825,-201.23681)">
    <path
       id="text4"
       style="font-size:15.771px;font-family:'Roboto Mono';-inkscape-font-specification:'Roboto Mono, Normal';letter-spacing:-2.23308px;word-spacing:0px;stroke-width:4.79227;stroke-linecap:square;stroke-miterlimit:99946.9"
       d="m 59.954402,201.23682 c -0.475158,0 -0.911362,0.0728 -1.307326,0.21802 -0.382762,0.14526 -0.712619,0.34308 -0.989792,0.59386 -0.277175,0.26399 -0.493949,0.58037 -0.652333,0.94995 -0.145182,0.35636 -0.217889,0.74547 -0.217889,1.16783 0,0.42236 0.07271,0.81818 0.217889,1.18773 0.158397,0.35639 0.37516,0.66064 0.652333,0.91141 0.277173,0.26399 0.60703,0.46863 0.989792,0.61382 0.395964,0.14526 0.832168,0.21776 1.307326,0.21776 0.976705,0 1.748169,-0.27063 2.315716,-0.81176 0.580744,-0.55435 0.871548,-1.26116 0.871548,-2.11909 0,-0.85793 -0.290804,-1.55669 -0.871548,-2.09783 -0.567547,-0.55434 -1.339011,-0.8317 -2.315716,-0.8317 z m -18.076676,8.01798 c -0.65994,0 -1.279266,0.0728 -1.860013,0.21802 -0.567545,0.13189 -1.089913,0.32317 -1.565067,0.57396 -0.395962,0.21108 -0.764869,0.46159 -1.108038,0.75195 -0.343167,0.2772 -0.659563,0.59359 -0.949935,0.94994 l -0.197964,-2.09782 H 31.10825 v 29.65791 h 5.50431 6.414389 V 260.7494 H 31.175437 v 4.47465 H 54.727763 V 260.7494 H 48.589717 V 234.81418 H 36.61256 v -5.60264 c 0.250771,0.27718 0.51466,0.52761 0.791835,0.75198 0.277173,0.22445 0.566648,0.42902 0.870219,0.61379 0.514753,0.29037 1.06944,0.50849 1.663384,0.65367 0.607143,0.15837 1.266854,0.23781 1.979586,0.23781 1.346274,0 2.540483,-0.27732 3.583182,-0.83168 1.042702,-0.55435 1.920516,-1.32042 2.633248,-2.29712 0.699535,-0.9635 1.227305,-2.11192 1.583668,-3.44501 0.369566,-1.33307 0.555349,-2.7777 0.555349,-4.33516 v -0.41585 c 0,-1.62344 -0.185778,-3.10171 -0.555349,-4.43478 -0.356363,-1.34629 -0.890863,-2.50144 -1.603595,-3.46496 -0.712735,-0.95031 -1.589217,-1.68272 -2.631919,-2.19746 -1.042702,-0.52797 -2.244969,-0.79185 -3.604442,-0.79185 z m 9.207068,0.39593 v 4.49458 h 6.098186 v 12.45281 h -6.098186 v 4.47465 h 22.584982 v -4.47465 H 62.745748 v -16.94739 z m -10.671163,4.07875 c 0.778726,0 1.438437,0.16429 1.979586,0.49422 0.554348,0.32998 1.009416,0.77964 1.365779,1.34718 0.34317,0.58075 0.593594,1.26604 0.751978,2.05798 0.171586,0.77872 0.257744,1.61749 0.257744,2.51499 v 0.41585 c 0,0.88434 -0.07942,1.72175 -0.237814,2.51368 -0.158396,0.77872 -0.408811,1.46535 -0.751975,2.05929 -0.343169,0.59394 -0.791506,1.06248 -1.345852,1.40565 -0.541151,0.34314 -1.202186,0.5155 -1.980915,0.5155 -0.488354,0 -0.929963,-0.047 -1.325925,-0.1396 -0.395964,-0.10567 -0.746005,-0.25093 -1.049579,-0.43578 -0.316768,-0.19796 -0.600844,-0.43495 -0.851621,-0.71213 -0.237582,-0.27718 -0.440891,-0.58682 -0.612475,-0.92999 v -8.94934 c 0.184775,-0.36955 0.401556,-0.69269 0.652333,-0.96987 0.263976,-0.27717 0.568239,-0.50872 0.911408,-0.69352 0.303569,-0.15837 0.640154,-0.27684 1.009722,-0.35605 0.369563,-0.0923 0.77885,-0.13806 1.227606,-0.13806 z m 23.421554,29.67649 c -1.491458,0 -2.871447,0.27062 -4.13853,0.81176 -1.26708,0.54113 -2.361667,1.30048 -3.28558,2.2772 -0.923914,0.97672 -1.644192,2.14531 -2.158944,3.50479 -0.514751,1.34628 -0.771906,2.83669 -0.771906,4.47334 v 0.79317 c 0,1.43866 0.257155,2.79039 0.771906,4.05746 0.527952,1.25389 1.273823,2.34308 2.23733,3.267 0.963509,0.93712 2.118665,1.67624 3.464941,2.2174 1.346273,0.54114 2.844745,0.81176 4.494588,0.81176 2.072207,0 3.866882,-0.40254 5.384739,-1.20768 1.517857,-0.80513 2.625905,-1.70314 3.325438,-2.69303 l -2.751491,-2.96939 c -0.633542,0.81834 -1.458843,1.43226 -2.475147,1.84143 -1.016304,0.40914 -2.065109,0.61379 -3.147407,0.61379 -0.765529,0 -1.472348,-0.11852 -2.119089,-0.35605 -0.646738,-0.23755 -1.220286,-0.57418 -1.721839,-1.00972 -0.488355,-0.42239 -0.877452,-0.89089 -1.167824,-1.40565 -0.290372,-0.52794 -0.528664,-1.22131 -0.713447,-2.0792 v -0.0599 h 14.53202 v -2.33564 c 0,-1.57065 -0.218095,-3.00314 -0.653662,-4.29664 -0.43556,-1.30666 -1.06835,-2.42143 -1.899871,-3.34536 -0.844723,-0.9239 -1.874665,-1.63613 -3.088951,-2.13768 -1.201086,-0.51475 -2.573018,-0.77324 -4.117274,-0.77324 z m -0.03985,4.45473 c 0.699535,0 1.313463,0.11313 1.841415,0.33747 0.541148,0.21107 0.996214,0.50064 1.365779,0.87022 0.369568,0.38277 0.660372,0.83243 0.871551,1.34718 0.211178,0.51476 0.316202,1.06137 0.316202,1.64213 v 0.43577 h -9.027709 c 0.131993,-0.69953 0.329906,-1.33232 0.593877,-1.89986 0.263976,-0.56757 0.59383,-1.05628 0.989791,-1.46542 0.382765,-0.4092 0.8311,-0.71884 1.345852,-0.93002 0.514753,-0.22445 1.082899,-0.33747 1.703242,-0.33747 z"
       sodipodi:nodetypes="scccscccscscssccccccccccccccccccsccssccsscccscccccccccccscccsscscsccccccccsssscssccsssccssscccccscccssccssccsccs"
       inkscape:label="alternative" />
  </g>
</svg>
