<?xml version="1.0" encoding="UTF-8" standalone="no"?>
<!-- Created with Inkscape (http://www.inkscape.org/) -->

<svg
   width="41.610256mm"
   height="71.428719mm"
   viewBox="0 0 41.610256 71.428719"
   version="1.1"
   id="svg1"
   inkscape:export-filename="logo.svg"
   inkscape:export-xdpi="96"
   inkscape:export-ydpi="96"
   inkscape:version="1.3.2 (091e20e, 2023-11-25, custom)"
   sodipodi:docname="logo.svg"
   xmlns:inkscape="http://www.inkscape.org/namespaces/inkscape"
   xmlns:sodipodi="http://sodipodi.sourceforge.net/DTD/sodipodi-0.dtd"
   xmlns="http://www.w3.org/2000/svg"
   xmlns:svg="http://www.w3.org/2000/svg">
  <sodipodi:namedview
     id="namedview1"
     pagecolor="#ffffff"
     bordercolor="#000000"
     borderopacity="0.25"
     inkscape:showpageshadow="2"
     inkscape:pageopacity="0.0"
     inkscape:pagecheckerboard="0"
     inkscape:deskcolor="#d1d1d1"
     inkscape:document-units="mm"
     showguides="false"
     inkscape:zoom="1.1500512"
     inkscape:cx="424.7637"
     inkscape:cy="814.31157"
     inkscape:window-width="1920"
     inkscape:window-height="1009"
     inkscape:window-x="-8"
     inkscape:window-y="-8"
     inkscape:window-maximized="1"
     inkscape:current-layer="layer1"
     inkscape:export-bgcolor="#ffffff00" />
  <defs
     id="defs1" />
  <g
     inkscape:label="Camada 1"
     inkscape:groupmode="layer"
     id="layer1"
     transform="translate(-134.30602,-196.95982)">
    <path
       id="rect6"
       style="fill:#000000;stroke-width:1.864;stroke-linecap:square;stroke-miterlimit:99946.9"
       d="m 134.30602,196.95981 v 71.42871 h 41.61026 v -71.42871 z m 27.81903,3.52278 c 0.9767,0 1.74807,0.27764 2.31562,0.83199 0.58074,0.54113 0.87178,1.23962 0.87178,2.09756 0,0.85793 -0.29104,1.56489 -0.87178,2.11924 -0.56755,0.54115 -1.33892,0.81184 -2.31562,0.81184 -0.47515,0 -0.91146,-0.0728 -1.30742,-0.21808 -0.38277,-0.14518 -0.71243,-0.34941 -0.9896,-0.6134 -0.27718,-0.25077 -0.49376,-0.55518 -0.65216,-0.91157 -0.14519,-0.36955 -0.21807,-0.76568 -0.21807,-1.18804 0,-0.42236 0.0729,-0.81101 0.21807,-1.16737 0.15839,-0.36958 0.37498,-0.68634 0.65216,-0.95033 0.27717,-0.25077 0.60683,-0.4485 0.9896,-0.59376 0.39596,-0.14522 0.83227,-0.21808 1.30742,-0.21808 z m -18.07642,8.01813 c 1.35947,0 2.56173,0.26423 3.60443,0.7922 1.0427,0.51474 1.91914,1.24697 2.63188,2.19728 0.71273,0.96352 1.24716,2.11861 1.60352,3.4649 0.36957,1.33307 0.55552,2.81144 0.55552,4.43487 v 0.416 c 0,1.55746 -0.18595,3.00207 -0.55552,4.33514 -0.35636,1.33307 -0.88434,2.48124 -1.58388,3.44475 -0.71273,0.97669 -1.59022,1.74266 -2.63292,2.29701 -1.0427,0.55436 -2.23696,0.83198 -3.58324,0.83198 -0.71273,0 -1.37258,-0.0798 -1.97972,-0.23822 -0.59394,-0.14518 -1.14872,-0.36282 -1.66347,-0.65319 -0.30358,-0.18476 -0.59306,-0.38947 -0.87023,-0.61392 -0.27718,-0.22437 -0.54091,-0.47471 -0.79168,-0.75189 v 5.60224 h 11.97704 v 25.93537 h 6.13813 v 4.47466 h -22.59247 v -4.47466 h 10.89189 v -21.44055 h -6.41459 -4.4773 v -29.65814 h 4.0613 l 0.19792,2.09806 c 0.29038,-0.35636 0.60716,-0.67261 0.95033,-0.94981 0.34317,-0.29037 0.71199,-0.54081 1.10795,-0.75189 0.47514,-0.25079 0.99722,-0.44224 1.56476,-0.57413 0.58075,-0.14522 1.20041,-0.21807 1.86035,-0.21806 z m 9.20667,0.39584 h 11.66131 v 16.94728 h 10.99967 v 4.47467 H 153.2553 v -4.47467 h 6.09834 v -12.45247 h -6.09834 z m -10.67118,4.07882 c -0.44875,0 -0.85776,0.0457 -1.22732,0.13797 -0.36957,0.0792 -0.70618,0.19768 -1.00975,0.35606 -0.34317,0.1848 -0.64761,0.41632 -0.91158,0.69349 -0.25078,0.27718 -0.46737,0.60042 -0.65215,0.96997 v 8.94932 c 0.17159,0.34316 0.37478,0.65299 0.61236,0.93018 0.25078,0.27717 0.53486,0.51414 0.85163,0.7121 0.30357,0.18485 0.65358,0.32996 1.04955,0.43563 0.39596,0.0926 0.83767,0.13953 1.32602,0.13953 0.77873,0 1.4396,-0.17207 1.98075,-0.51521 0.55434,-0.34317 1.00301,-0.81166 1.34618,-1.4056 0.34315,-0.59394 0.59349,-1.28059 0.75189,-2.05931 0.15841,-0.79193 0.23771,-1.62972 0.23771,-2.51406 v -0.41548 c 0,-0.89749 -0.0863,-1.73637 -0.25787,-2.51509 -0.15839,-0.79194 -0.40872,-1.47752 -0.75189,-2.05827 -0.35637,-0.56754 -0.81146,-1.01722 -1.36581,-1.3472 -0.54115,-0.32993 -1.20099,-0.49403 -1.97972,-0.49403 z m 23.42183,29.67622 c 1.54424,0 2.91597,0.25885 4.11706,0.77359 1.21429,0.50156 2.24449,1.21344 3.08921,2.13734 0.83152,0.92393 1.46407,2.03887 1.89963,3.34553 0.43557,1.2935 0.65371,2.72573 0.65371,4.29638 v 2.33578 h -14.53193 v 0.06 c 0.18479,0.85789 0.42328,1.55151 0.71365,2.07945 0.29037,0.51477 0.67954,0.98321 1.16789,1.4056 0.50156,0.43554 1.07461,0.7722 1.72134,1.00975 0.64675,0.23753 1.35372,0.35605 2.11925,0.35605 1.0823,0 2.13131,-0.20477 3.14761,-0.61391 1.0163,-0.40917 1.84124,-1.02289 2.47478,-1.84123 l 2.75177,2.96932 c -0.69953,0.98989 -1.80752,1.88773 -3.32537,2.69286 -1.51786,0.80514 -3.31248,1.20768 -5.38469,1.20768 -1.64984,0 -3.14854,-0.2707 -4.49481,-0.81184 -1.34627,-0.54115 -2.5014,-1.28031 -3.46491,-2.21743 -0.96351,-0.92392 -1.70912,-2.0131 -2.23707,-3.26699 -0.51475,-1.26706 -0.77205,-2.61845 -0.77205,-4.05711 v -0.79324 c 0,-1.63664 0.2573,-3.12735 0.77205,-4.47362 0.51475,-1.35948 1.2346,-2.52799 2.15852,-3.5047 0.92391,-0.97673 2.01851,-1.73625 3.28559,-2.27738 1.26708,-0.54114 2.64731,-0.81132 4.13877,-0.81132 z m -0.0398,4.45503 c -0.62035,0 -1.18849,0.113 -1.70325,0.33745 -0.51475,0.21118 -0.9634,0.52096 -1.34617,0.93016 -0.39596,0.40914 -0.72563,0.89747 -0.98961,1.46504 -0.26397,0.56754 -0.46176,1.2006 -0.59376,1.90014 h 9.02736 v -0.43563 c 0,-0.58076 -0.10457,-1.12752 -0.31574,-1.64229 -0.21118,-0.51476 -0.50222,-0.96444 -0.87179,-1.34719 -0.36956,-0.36958 -0.82465,-0.65916 -1.3658,-0.87023 -0.52795,-0.22434 -1.14171,-0.33745 -1.84124,-0.33745 z"
       sodipodi:nodetypes="cccccscscscccscccsscccssccsscccccccccccccccccccccscccccccccccsccccccccscscsscccsccccscccccsssccsssccsscssccsccsccssccs"
       inkscape:label="alternative_bw" />
  </g>
</svg>
