<?xml version="1.0" encoding="UTF-8" standalone="no"?>
<!-- Created with Inkscape (http://www.inkscape.org/) -->

<svg
   width="84.520554mm"
   height="43.416348mm"
   viewBox="0 0 84.520554 43.416348"
   version="1.1"
   id="svg1"
   inkscape:export-filename="logo.svg"
   inkscape:export-xdpi="96"
   inkscape:export-ydpi="96"
   inkscape:version="1.3.2 (091e20e, 2023-11-25, custom)"
   sodipodi:docname="logo.svg"
   xmlns:inkscape="http://www.inkscape.org/namespaces/inkscape"
   xmlns:sodipodi="http://sodipodi.sourceforge.net/DTD/sodipodi-0.dtd"
   xmlns="http://www.w3.org/2000/svg"
   xmlns:svg="http://www.w3.org/2000/svg">
  <sodipodi:namedview
     id="namedview1"
     pagecolor="#ffffff"
     bordercolor="#000000"
     borderopacity="0.25"
     inkscape:showpageshadow="2"
     inkscape:pageopacity="0.0"
     inkscape:pagecheckerboard="0"
     inkscape:deskcolor="#d1d1d1"
     inkscape:document-units="mm"
     showguides="false"
     inkscape:zoom="1.1500512"
     inkscape:cx="424.7637"
     inkscape:cy="814.31157"
     inkscape:window-width="1920"
     inkscape:window-height="1009"
     inkscape:window-x="-8"
     inkscape:window-y="-8"
     inkscape:window-maximized="1"
     inkscape:current-layer="layer1"
     inkscape:export-bgcolor="#ffffff00" />
  <defs
     id="defs1" />
  <g
     inkscape:label="Camada 1"
     inkscape:groupmode="layer"
     id="layer1"
     transform="translate(-115.15684,-25.377395)">
    <path
       d="m 115.15685,68.793742 h 6.18326 v -11.34341 c 0.28173,0.311387 0.57829,0.593119 0.88968,0.845196 0.31139,0.252075 0.6376,0.481908 0.97865,0.689501 0.57829,0.326215 1.20107,0.570876 1.86832,0.733983 0.68209,0.17794 1.42349,0.266909 2.22421,0.266909 1.51245,0 2.85438,-0.311388 4.02578,-0.934164 1.17143,-0.622776 2.15749,-1.482799 2.95818,-2.580069 0.78589,-1.082443 1.37902,-2.372477 1.77938,-3.870104 0.41519,-1.497627 0.62278,-3.121292 0.62278,-4.870995 v -0.467081 c 0,-1.823842 -0.20759,-3.484576 -0.62278,-4.982203 -0.40036,-1.512455 -1.0009,-2.809905 -1.80162,-3.892348 -0.80069,-1.067615 -1.78675,-1.890568 -2.95818,-2.46886 -1.1714,-0.593119 -2.52074,-0.889677 -4.04802,-0.889677 -0.74141,0 -1.43834,0.08156 -2.09077,0.244669 -0.6376,0.148286 -1.2233,0.363292 -1.75711,0.645018 -0.44483,0.237247 -0.86002,0.518979 -1.24555,0.845194 -0.38553,0.311388 -0.7414,0.66726 -1.06761,1.067617 l -0.22243,-2.357653 h -5.71618 z m 15.34697,-21.530236 v 0.467081 c 0,0.993474 -0.089,1.935053 -0.26688,2.824731 -0.17792,0.874851 -0.45966,1.645907 -0.84521,2.313167 -0.38551,0.667259 -0.88966,1.193652 -1.51244,1.579179 -0.60795,0.385528 -1.34935,0.578292 -2.2242,0.578292 -0.54865,0 -1.04539,-0.0519 -1.49023,-0.155709 -0.44483,-0.118634 -0.83777,-0.28174 -1.17881,-0.489323 -0.35587,-0.22242 -0.67468,-0.489323 -0.95641,-0.800711 -0.2669,-0.311388 -0.49673,-0.659846 -0.6895,-1.045372 V 42.481465 c 0.20759,-0.415183 0.45225,-0.778469 0.73398,-1.089858 0.29657,-0.311388 0.63761,-0.570876 1.02314,-0.778469 0.34105,-0.17794 0.71916,-0.311391 1.13432,-0.400355 0.41519,-0.103806 0.87486,-0.155709 1.37903,-0.155709 0.87485,0 1.61625,0.18535 2.2242,0.556049 0.62276,0.3707 1.13432,0.874852 1.53468,1.512457 0.38553,0.652431 0.66727,1.423485 0.84521,2.313164 0.19276,0.874851 0.28914,1.816429 0.28914,2.824732 z m 7.09551,-11.788252 v 5.048932 h 6.85053 v 13.990206 h -6.85053 v 5.026686 h 20.52969 v -5.026686 h -7.42914 V 35.475253 Z m 6.4057,-6.161027 c 0,0.474495 0.0815,0.919335 0.24464,1.334517 0.17792,0.400357 0.42258,0.741403 0.73398,1.023134 0.31138,0.296559 0.68208,0.526392 1.11209,0.689501 0.44485,0.163113 0.93418,0.244669 1.46798,0.244669 1.09727,0 1.9647,-0.303975 2.60231,-0.911921 0.65243,-0.622774 0.97865,-1.416071 0.97865,-2.379893 0,-0.963818 -0.32622,-1.749701 -0.97865,-2.357648 -0.63761,-0.622776 -1.50504,-0.934164 -2.60231,-0.934164 -0.5338,0 -1.02313,0.08156 -1.46798,0.244669 -0.43001,0.163113 -0.80071,0.385533 -1.11209,0.66726 -0.31138,0.296561 -0.55604,0.652433 -0.73398,1.067616 -0.16309,0.400355 -0.24464,0.83778 -0.24464,1.312276 z m 14.12399,-3.936832 v 5.048929 h 7.2064 v 24.088068 h -7.2064 v 5.026686 h 20.35143 v -5.026686 h -6.89501 V 25.377395 Z m 31.27257,34.608525 c 2.328,0 4.34461,-0.452255 6.04983,-1.356763 1.70522,-0.904508 2.95077,-1.91281 3.73664,-3.02491 l -3.09162,-3.336295 c -0.71176,0.919334 -1.63851,1.608835 -2.78026,2.068503 -1.14175,0.459667 -2.32058,0.689501 -3.53648,0.689501 -0.86003,0 -1.65332,-0.133452 -2.37988,-0.400355 -0.72657,-0.266903 -1.37159,-0.645016 -1.93506,-1.134341 -0.54862,-0.474496 -0.98604,-1.000889 -1.31227,-1.579179 -0.32621,-0.593122 -0.59311,-1.37159 -0.8007,-2.335409 v -0.06672 h 16.32561 v -2.624556 c 0,-1.764529 -0.24466,-3.373365 -0.73398,-4.826509 -0.48934,-1.467971 -1.20109,-2.720937 -2.13524,-3.758896 -0.94899,-1.037959 -2.10557,-1.838671 -3.46976,-2.402134 -1.34934,-0.578291 -2.89145,-0.867436 -4.62633,-0.867436 -1.67557,0 -3.22509,0.303974 -4.64856,0.911922 -1.42349,0.607947 -2.65422,1.460556 -3.69219,2.557826 -1.03795,1.097271 -1.84607,2.409548 -2.42436,3.93683 -0.5783,1.512455 -0.86745,3.188019 -0.86745,5.02669 v 0.889678 c 0,1.616251 0.28915,3.13612 0.86745,4.559606 0.59312,1.408659 1.4309,2.631969 2.51335,3.669928 1.08244,1.052788 2.37989,1.883156 3.89235,2.491103 1.51245,0.607947 3.19542,0.911921 5.04891,0.911921 z m -0.73398,-19.951057 c 0.78589,0 1.47539,0.126036 2.0685,0.378112 0.60795,0.237248 1.11951,0.563464 1.5347,0.978647 0.41519,0.430012 0.7414,0.934164 0.97865,1.512456 0.23725,0.57829 0.35587,1.193651 0.35587,1.846082 v 0.489324 h -10.14234 c 0.14827,-0.785883 0.37069,-1.497626 0.66726,-2.135229 0.29655,-0.637605 0.66725,-1.18624 1.11208,-1.645907 0.43001,-0.459667 0.93417,-0.808125 1.51247,-1.045373 0.5783,-0.252075 1.2159,-0.378112 1.91281,-0.378112 z"
       id="text2"
       style="font-size:15.771px;font-family:'Roboto Mono';-inkscape-font-specification:'Roboto Mono, Normal';letter-spacing:-2.23308px;word-spacing:0px;stroke-width:5.38381;stroke-linecap:square;stroke-miterlimit:99946.9"
       aria-label="pile"
       sodipodi:nodetypes="cccsccssccsscccsccccccccscccsccccccccscccsccccccccccccscccscscscccsscccccccccccssccssscccccscccssscssccssssccssccsccs"
       inkscape:label="compact_text" />
  </g>
</svg>
